<?xml version="1.0" encoding="UTF-8"?>
<svg version="1.1" xmlns="http://www.w3.org/2000/svg" width="1000" height="292">
<path d="M0 0 C1.16726738 -0.00679667 1.16726738 -0.00679667 2.35811591 -0.01373065 C4.95029214 -0.02633105 7.54225709 -0.02475711 10.13446045 -0.02310181 C11.99939746 -0.02908982 13.864332 -0.035896 15.72926331 -0.04345703 C20.78522456 -0.06109742 25.84111807 -0.06581162 30.89710712 -0.0670886 C34.05931868 -0.06851199 37.22151311 -0.07278516 40.3837204 -0.07808304 C51.42548207 -0.09657755 62.46719552 -0.10475446 73.50897217 -0.10317993 C83.78534871 -0.10197902 94.06151505 -0.12307298 104.33783841 -0.15466726 C113.17375715 -0.18086049 122.00960736 -0.19154593 130.8455646 -0.19026911 C136.11699998 -0.18976033 141.38824853 -0.19539694 146.65964508 -0.21662521 C151.62065821 -0.23605865 156.58130727 -0.23609718 161.5423336 -0.22159195 C163.35668917 -0.21950901 165.17106783 -0.22417383 166.98538399 -0.23631287 C180.11088969 -0.31840014 192.08391239 0.53759276 201.98114014 10.26742554 C210.88499941 20.46117992 212.4377424 31.19751628 212.36932373 44.39193726 C212.37720917 46.2895858 212.37720917 46.2895858 212.38525391 48.22557068 C212.39881703 51.66639178 212.39367125 55.10693998 212.38411665 58.54776525 C212.37644588 62.18008426 212.38358753 65.81238208 212.38827515 69.44470215 C212.39371829 75.55231853 212.38658642 81.65982578 212.37225342 87.76742554 C212.35600293 94.77179422 212.36116556 101.77589979 212.37773263 108.78026187 C212.39147712 114.83938295 212.39320262 120.89842611 212.38541663 126.9575578 C212.38080092 130.55583359 212.37994095 134.15398714 212.39002609 137.75225449 C212.47188928 171.59779468 207.28881542 198.09163006 189.98114014 227.26742554 C189.32114014 227.26742554 188.66114014 227.26742554 187.98114014 227.26742554 C187.65114014 228.58742554 187.32114014 229.90742554 186.98114014 231.26742554 C186.32114014 231.26742554 185.66114014 231.26742554 184.98114014 231.26742554 C184.32114014 232.91742554 183.66114014 234.56742554 182.98114014 236.26742554 C182.32114014 236.26742554 181.66114014 236.26742554 180.98114014 236.26742554 C180.76457764 236.80883179 180.54801514 237.35023804 180.32489014 237.90805054 C178.51614017 241.08387897 176.06390214 243.47470635 173.48114014 246.01742554 C172.98227295 246.5240271 172.48340576 247.03062866 171.96942139 247.55258179 C168.23455152 251.26742554 168.23455152 251.26742554 165.98114014 251.26742554 C165.65114014 252.25742554 165.32114014 253.24742554 164.98114014 254.26742554 C158.89513641 259.46226444 152.07509914 263.61439017 144.98114014 267.26742554 C143.6624292 267.9905896 143.6624292 267.9905896 142.31707764 268.72836304 C134.15838149 273.0606087 125.87172179 275.89804237 116.98114014 278.26742554 C115.79520264 278.58969116 114.60926514 278.91195679 113.38739014 279.24398804 C95.43976779 283.34739742 74.7205252 283.18044762 56.98114014 278.26742554 C56.29503662 278.08470093 55.60893311 277.90197632 54.90203857 277.7137146 C41.88884126 274.16147921 30.55602275 268.09569487 18.98114014 261.26742554 C18.98114014 260.60742554 18.98114014 259.94742554 18.98114014 259.26742554 C17.90799561 258.89617554 17.90799561 258.89617554 16.81317139 258.51742554 C13.66704307 257.12878959 11.34303051 255.42278608 8.66864014 253.26742554 C7.78563232 252.56617554 6.90262451 251.86492554 5.99285889 251.14242554 C4.99705811 250.21430054 4.99705811 250.21430054 3.98114014 249.26742554 C3.98114014 248.60742554 3.98114014 247.94742554 3.98114014 247.26742554 C2.99114014 246.93742554 2.00114014 246.60742554 0.98114014 246.26742554 C-0.21903409 244.87775012 -1.41868991 243.48533227 -2.54229736 242.03305054 C-4.09768481 240.1130987 -4.09768481 240.1130987 -6.38214111 237.95883179 C-35.42343398 208.31520099 -38.35552895 167.11955262 -38.28448486 128.03695679 C-38.28583614 125.38189977 -38.2877785 122.72684824 -38.2902832 120.0717926 C-38.29388476 114.552917 -38.28921964 109.03409558 -38.27960205 103.51522827 C-38.26866509 97.16656033 -38.27229624 90.8180204 -38.28325486 84.4693554 C-38.29236655 78.96643897 -38.2935959 73.46356073 -38.28837752 67.96063918 C-38.28528666 64.69597709 -38.28557477 61.43138733 -38.2914505 58.16672707 C-38.29655857 54.53589945 -38.28874812 50.9053152 -38.27764893 47.27450562 C-38.28169739 46.21717728 -38.28574585 45.15984894 -38.28991699 44.07048035 C-38.21962055 31.58784045 -35.92794351 22.63105101 -29.01885986 12.26742554 C-28.35885986 12.26742554 -27.69885986 12.26742554 -27.01885986 12.26742554 C-26.78553955 11.67187866 -26.55221924 11.07633179 -26.31182861 10.46273804 C-24.69628455 7.71972968 -23.06797663 6.74332539 -20.33135986 5.14242554 C-19.50249268 4.64484741 -18.67362549 4.14726929 -17.81964111 3.63461304 C-11.98398876 0.78596824 -6.42638323 -0.02782669 0 0 Z " fill="#0F1D2F" transform="translate(45.01885986328125,6.732574462890625)"/>
<path d="M0 0 C0.74844124 -0.00297112 1.49688248 -0.00594224 2.26800376 -0.0090034 C4.77737943 -0.01767893 7.28670733 -0.01919769 9.7960968 -0.02069092 C11.59487001 -0.02531996 13.39364224 -0.03034473 15.19241333 -0.03573608 C20.08105423 -0.0488551 24.96968141 -0.05530425 29.85833716 -0.05974674 C32.913808 -0.06267869 35.96927509 -0.06678376 39.02474403 -0.07125092 C48.588076 -0.08492545 58.15139939 -0.09459193 67.71474046 -0.09845281 C78.74743323 -0.10293151 89.78000199 -0.12047093 100.81265706 -0.1494534 C109.34444516 -0.1710866 117.87619841 -0.18115799 126.40801364 -0.18249393 C131.50166868 -0.18354091 136.59520712 -0.189426 141.68883324 -0.20731354 C146.48312777 -0.22382217 151.27721843 -0.22593615 156.0715313 -0.21717453 C157.82705991 -0.21640561 159.5825996 -0.22072766 161.33810043 -0.23063278 C182.53517309 -0.34317824 182.53517309 -0.34317824 190.8441925 7.14044189 C192.02755188 8.16137939 192.02755188 8.16137939 193.2348175 9.20294189 C199.86801703 17.46149494 201.32872618 25.71677281 201.20942688 36.06890869 C201.21497589 37.31277847 201.2205249 38.55664825 201.22624207 39.83821106 C201.23596426 43.21926583 201.22354772 46.59876465 201.19995689 49.97965217 C201.17966398 53.54356364 201.18573732 57.10744687 201.18806458 60.67140198 C201.18801117 66.65885806 201.16836051 72.64599694 201.13618469 78.63336182 C201.0993834 85.51401817 201.09049942 92.39425833 201.0974822 99.27500027 C201.10383452 105.93907919 201.09294092 112.60301827 201.07351685 119.26706886 C201.06543155 122.08123613 201.06261669 124.89533104 201.06420898 127.7095089 C201.0665662 155.48230643 201.0665662 155.48230643 197.5941925 169.14044189 C197.22479759 170.78607227 196.85608049 172.43185533 196.48872375 174.07794189 C193.80409972 184.51415458 189.82599287 193.73988702 184.5941925 203.14044189 C183.83622375 204.54229736 183.83622375 204.54229736 183.0629425 205.97247314 C176.94542049 216.76310226 168.47313747 225.59515248 159.5941925 234.14044189 C156.96303329 231.88926537 156.19953936 230.47328167 155.85591125 227.04278564 C155.71463806 225.84782471 155.71463806 225.84782471 155.57051086 224.62872314 C155.47520081 223.78696533 155.37989075 222.94520752 155.2816925 222.07794189 C153.55033833 209.56630331 148.5958408 202.9597851 140.00434875 193.82403564 C133.50294439 186.58503273 130.42939562 180.94888655 130.49653625 171.19122314 C130.49865868 170.03229805 130.49865868 170.03229805 130.50082397 168.84996033 C130.50641784 166.384248 130.51896918 163.91862674 130.5316925 161.45294189 C130.5367083 159.78041717 130.54127107 158.10789101 130.54536438 156.43536377 C130.55638526 152.33702143 130.57364566 148.2387471 130.5941925 144.14044189 C131.5841925 144.14044189 132.5741925 144.14044189 133.5941925 144.14044189 C134.0685675 145.02731689 134.5429425 145.91419189 135.0316925 146.82794189 C138.29115202 151.98671053 143.93673658 153.64864346 149.5941925 155.14044189 C156.41929288 156.00139047 163.21587027 156.50151084 169.3441925 152.95294189 C173.66760835 149.58611697 175.35639933 146.80669264 176.1410675 141.30841064 C176.54026802 137.43815579 176.69045256 133.59626116 176.76997375 129.70684814 C176.79382141 128.56280518 176.81766907 127.41876221 176.84223938 126.24005127 C176.88513361 123.88606798 176.91642462 121.53184405 176.93598938 119.17755127 C177.16156373 109.85556012 178.99444226 102.74743407 184.3441925 95.07794189 C188.08110495 88.54707621 187.8132562 80.39915906 186.5941925 73.14044189 C183.80204566 65.40500005 176.66269437 60.33475421 170.5941925 55.14044189 C167.79655099 52.52525526 165.7598531 50.41463874 163.7816925 47.14044189 C161.33972615 43.79145947 159.17538808 42.56330065 155.65278625 40.54669189 C153.40041454 39.00806985 152.02616871 37.40389575 150.3441925 35.26544189 C146.73924628 30.88859374 142.56965245 28.55057438 137.62934875 25.86309814 C134.79350012 24.25356243 132.3076652 22.48984528 129.7191925 20.51544189 C112.99129489 8.60517879 90.94537149 8.52146933 71.4691925 11.64044189 C62.50693086 13.17159005 54.54657473 15.90050869 46.19111633 19.41876221 C39.55779268 22.09057912 33.59176039 23.00249073 26.4523468 22.84039307 C21.27510936 22.77027385 18.53649838 23.78577351 14.5941925 27.14044189 C12.71939794 29.52464651 12.71939794 29.52464651 11.3441925 32.14044189 C10.62489563 33.40887939 10.62489563 33.40887939 9.8910675 34.70294189 C8.59795198 37.0468737 8.59795198 37.0468737 7.7191925 39.20684814 C6.19382819 41.82856807 4.24619482 43.24004619 1.8441925 45.07794189 C0.94571594 45.78048096 0.04723938 46.48302002 -0.87846375 47.20684814 C-2.77321845 48.65646728 -4.68026798 50.0900399 -6.5933075 51.51544189 C-15.19600474 59.54462599 -20.37329018 69.53899142 -20.87675476 81.31231689 C-21.13213007 100.67792016 -11.1466603 119.97735216 0.79341125 134.88653564 C3.16102101 139.16466781 2.94614426 142.30000537 2.6566925 147.07794189 C2.30710596 153.33397575 2.60621913 157.54426155 5.5941925 163.14044189 C9.98141963 167.25346733 14.73085534 167.64805715 20.5316925 167.63262939 C26.07883547 166.74112427 30.17580463 163.43930582 34.5941925 160.14044189 C35.5841925 159.48044189 36.5741925 158.82044189 37.5941925 158.14044189 C38.59131191 173.76197925 32.63467512 184.39097762 24.5941925 197.14044189 C15.93867975 211.04574742 14.11975628 221.00961018 14.5941925 237.14044189 C2.1390164 228.75715029 -7.06078716 217.09657613 -14.4058075 204.14044189 C-14.75627136 203.52330322 -15.10673523 202.90616455 -15.46781921 202.27032471 C-19.70694264 194.65201991 -23.07872066 186.86765145 -25.7808075 178.57794189 C-26.01952576 177.85969238 -26.25824402 177.14144287 -26.50419617 176.40142822 C-31.4880906 160.14113466 -30.73404039 143.07326121 -30.74032164 126.26127672 C-30.74175579 124.10074265 -30.74604845 121.94023298 -30.75131607 119.77970505 C-30.76971997 112.22203747 -30.77799713 104.66443974 -30.77641296 97.10675049 C-30.77520772 90.09066103 -30.79640939 83.07487723 -30.82790029 76.05886519 C-30.85410466 70.00240672 -30.86477883 63.94604808 -30.86350214 57.8895334 C-30.8629946 54.28604373 -30.86856467 50.6828278 -30.88985825 47.07939529 C-30.91293555 43.06649169 -30.9036945 39.05427274 -30.89164734 35.0413208 C-30.90288635 33.86294647 -30.91412537 32.68457214 -30.92570496 31.4704895 C-30.85385552 22.03759873 -28.61846072 14.7519327 -22.18315125 7.71075439 C-15.47579772 1.784697 -8.73358279 -0.01083945 0 0 Z " fill="#A3BDCA" transform="translate(47.40580749511719,15.85955810546875)"/>
<path d="M0 0 C9.88409648 -0.04646827 19.7681667 -0.0819426 29.65235043 -0.10362434 C34.24263828 -0.11403376 38.83285105 -0.12814073 43.4230957 -0.15087891 C47.85810134 -0.17270905 52.29303504 -0.18458998 56.72809029 -0.18975449 C58.41485284 -0.19343205 60.10161174 -0.20061316 61.78834343 -0.21146011 C78.00849597 -0.31156045 78.00849597 -0.31156045 86 2 C86.93070313 2.23460938 87.86140625 2.46921875 88.8203125 2.7109375 C96.61637337 4.95726012 102.499024 7.811402 108 14 C108.56847656 14.63808594 109.13695312 15.27617188 109.72265625 15.93359375 C120.1943522 28.40625071 121.03864269 43.24682994 119.76171875 58.92578125 C118.34785381 68.79427287 113.71242993 79.41450047 106 86 C103.73462236 87.45575814 101.45295509 88.74142342 99.05078125 89.95703125 C96.7834229 91.05970342 96.7834229 91.05970342 94 93 C93.01 93 92.02 93 91 93 C91.433125 93.62648438 91.86625 94.25296875 92.3125 94.8984375 C92.869375 95.71570313 93.42625 96.53296875 94 97.375 C94.556875 98.18710938 95.11375 98.99921875 95.6875 99.8359375 C97 102 97 102 97 104 C97.66 104 98.32 104 99 104 C100.63429751 106.0944968 102.14167234 108.17782091 103.625 110.375 C104.04523438 110.97828125 104.46546875 111.5815625 104.8984375 112.203125 C108 116.73462865 108 116.73462865 108 119 C108.66 119 109.32 119 110 119 C111.5078125 120.8984375 111.5078125 120.8984375 113.125 123.375 C113.66382813 124.18710938 114.20265625 124.99921875 114.7578125 125.8359375 C116 128 116 128 116 130 C116.66 130 117.32 130 118 130 C119.16790127 131.70179899 120.33451796 133.40450554 121.4921875 135.11328125 C123.88171148 138.10328146 126.82948618 139.88632412 130 142 C130 142.33 130 142.66 130 143 C125.00127878 143.09935536 120.00314045 143.17169622 115.00366211 143.21972656 C113.30531798 143.23976221 111.60704215 143.26699885 109.90893555 143.30175781 C107.4586496 143.35063415 105.0092806 143.37304872 102.55859375 143.390625 C101.43160316 143.42159271 101.43160316 143.42159271 100.28184509 143.45318604 C94.74097184 143.45551037 91.58600743 142.1242538 87 139 C85.00390625 136.9296875 85.00390625 136.9296875 83.5625 134.875 C82.82193359 133.85019531 82.82193359 133.85019531 82.06640625 132.8046875 C81 131 81 131 81 129 C80.34 129 79.68 129 79 129 C77.59765625 127.171875 77.59765625 127.171875 76.0625 124.75 C74.5411549 122.36876419 73.04549961 120.05842444 71.30859375 117.828125 C70 116 70 116 70 114 C69.34 114 68.68 114 68 114 C65.3979134 110.50344613 63.45002023 107.10839064 62 103 C61.34 103 60.68 103 60 103 C59.65324219 102.35546875 59.30648437 101.7109375 58.94921875 101.046875 C56.24606662 98.20829441 54.13947592 98.44564286 50.33789062 98.29296875 C49.08782227 98.27169922 49.08782227 98.27169922 47.8125 98.25 C46.5450293 98.20552734 46.5450293 98.20552734 45.25195312 98.16015625 C43.16848178 98.0895301 41.08423494 98.04249205 39 98 C39.04456596 102.51729795 39.11481933 107.03329814 39.20751953 111.54980469 C39.23551075 113.08192166 39.25683246 114.61417718 39.27099609 116.14648438 C39.35106165 124.32384608 39.49968837 131.70117098 43.15136719 139.21923828 C44 141 44 141 44 143 C29.48 143 14.96 143 0 143 C0.99 141.35 1.98 139.7 3 138 C7.73544922 126.61390634 6.43436445 113.45960543 6.3984375 101.40625 C6.40046176 99.00834057 6.40337613 96.61043175 6.40713501 94.21252441 C6.41154172 89.20298361 6.40518058 84.193604 6.39111328 79.18408203 C6.37402266 72.78903621 6.3838727 66.39436823 6.40183067 59.99933624 C6.41271317 55.05256343 6.40920169 50.10587899 6.4014473 45.15910339 C6.39945763 42.80217951 6.4018608 40.44524739 6.40888596 38.08833313 C6.91519054 18.21126767 6.91519054 18.21126767 0 0 Z M39 22 C39 39.82 39 57.64 39 76 C63.72171291 77.53784378 63.72171291 77.53784378 77 72 C77 71.34 77 70.68 77 70 C77.60457031 69.75121094 78.20914063 69.50242188 78.83203125 69.24609375 C81.34443848 67.80202545 82.22579242 66.53864187 83.6875 64.0625 C84.10386719 63.37285156 84.52023437 62.68320313 84.94921875 61.97265625 C87.1802709 57.7842498 87.21622717 53.87687719 87.25 49.25 C87.270625 48.5590625 87.29125 47.868125 87.3125 47.15625 C87.36316825 40.41737276 85.28648915 34.98054889 80.875 29.8125 C80.35679687 29.17957031 79.83859375 28.54664063 79.3046875 27.89453125 C71.26906962 21.28898096 62.97595243 21.49473246 52.9375 21.75 C46.0384375 21.87375 46.0384375 21.87375 39 22 Z " fill="#FFFFFF" transform="translate(599,76)"/>
<path d="M0 0 C1.2890625 -0.01224609 2.578125 -0.02449219 3.90625 -0.03710938 C10.52123051 -0.04729672 16.31571552 0.16621893 22.625 2.1875 C23.99398437 2.59548828 23.99398437 2.59548828 25.390625 3.01171875 C35.53219157 6.53575368 44.9129947 11.65076755 52.625 19.1875 C52.625 19.8475 52.625 20.5075 52.625 21.1875 C53.51058594 21.54908203 53.51058594 21.54908203 54.4140625 21.91796875 C62.10713104 26.33536676 66.85794514 38.17981094 69.625 46.1875 C75.76642431 70.0689922 74.34886913 96.12044002 62.0625 117.6875 C59.83752097 121.42834234 57.51596365 124.92408091 54.625 128.1875 C53.965 128.1875 53.305 128.1875 52.625 128.1875 C51.965 129.5075 51.305 130.8275 50.625 132.1875 C49.965 132.1875 49.305 132.1875 48.625 132.1875 C48.625 132.8475 48.625 133.5075 48.625 134.1875 C35.6887251 145.54951923 17.07890214 149.77348977 0.375 149.625 C-0.80360596 149.61887695 -1.98221191 149.61275391 -3.1965332 149.60644531 C-15.52798719 149.38640701 -26.55701383 147.39782539 -37.375 141.1875 C-38.53 140.61 -39.685 140.0325 -40.875 139.4375 C-41.7 139.025 -42.525 138.6125 -43.375 138.1875 C-43.375 137.5275 -43.375 136.8675 -43.375 136.1875 C-45.025 135.5275 -46.675 134.8675 -48.375 134.1875 C-48.375 133.5275 -48.375 132.8675 -48.375 132.1875 C-49.24125 131.8471875 -49.24125 131.8471875 -50.125 131.5 C-52.95873895 129.84698561 -54.40644113 127.79107787 -56.375 125.1875 C-56.82875 124.76984375 -57.2825 124.3521875 -57.75 123.921875 C-70.91897319 109.86652862 -73.62175376 88.11092616 -73.33642578 69.69824219 C-72.5655688 53.69220755 -68.30619192 37.99062601 -58.375 25.1875 C-57.715 25.1875 -57.055 25.1875 -56.375 25.1875 C-56.10558594 24.59582031 -55.83617187 24.00414063 -55.55859375 23.39453125 C-48.84989254 10.88490688 -33.13969962 5.20426926 -20.375 1.1875 C-13.60181046 -0.16502367 -6.88133046 0.00342014 0 0 Z M-27.98046875 34.05859375 C-30.54401641 37.28944131 -30.54401641 37.28944131 -31.375 41.1875 C-32.035 41.1875 -32.695 41.1875 -33.375 41.1875 C-41.63553671 60.16781717 -43.20347321 81.37478511 -36.125 101.0625 C-33.40146696 107.66988786 -29.73490722 113.40704221 -24.375 118.1875 C-23.715 118.1875 -23.055 118.1875 -22.375 118.1875 C-22.375 118.8475 -22.375 119.5075 -22.375 120.1875 C-10.65436506 126.84868515 -0.59311268 128.41553446 12.625 125.1875 C19.28130633 122.82415719 23.52768423 119.89890986 27.625 114.1875 C28.11097656 113.71699219 28.59695313 113.24648437 29.09765625 112.76171875 C34.46889342 107.22563543 36.8066687 99.4949189 38.625 92.1875 C38.83125 91.43082031 39.0375 90.67414063 39.25 89.89453125 C43.88160043 70.69268779 38.97725137 53.00053617 29.625 36.1875 C28.965 36.1875 28.305 36.1875 27.625 36.1875 C27.2228125 35.2903125 27.2228125 35.2903125 26.8125 34.375 C23.69372401 28.62988633 17.69719229 25.06698282 11.6953125 22.8828125 C-2.83709499 19.59175839 -17.95429615 22.37358967 -27.98046875 34.05859375 Z " fill="#FFFFFF" transform="translate(511.375,72.8125)"/>
<path d="M0 0 C9.62333286 -0.04647502 19.24662669 -0.08194597 28.87004757 -0.10362434 C33.33926819 -0.11403231 37.80841166 -0.12813657 42.27758789 -0.15087891 C46.59588434 -0.1727143 50.91410687 -0.18459106 55.2324543 -0.18975449 C56.87455978 -0.19343112 58.51666152 -0.20061038 60.15873528 -0.21146011 C68.34108219 -0.26334127 76.06579112 -0.281603 84 2 C84.75244492 2.20213104 85.50488983 2.40426208 86.28013611 2.61251831 C92.81826007 4.40705092 98.6838691 7.82304001 104 12 C104.495 13.485 104.495 13.485 105 15 C105.99 15.33 106.98 15.66 108 16 C117.82168653 28.66076779 118.98671606 44.33688107 117.4375 59.75 C115.68847241 70.87804134 110.58668066 80.8915183 101.6328125 87.8359375 C90.44229409 95.52333711 78.06378533 98.19249434 64.66015625 98.09765625 C63.89319931 98.0962413 63.12624237 98.09482635 62.33604431 98.09336853 C59.9114881 98.08781766 57.48702781 98.07527463 55.0625 98.0625 C53.40820447 98.05747864 51.75390747 98.05291685 50.09960938 98.04882812 C46.06636988 98.03786438 42.03320114 98.02063424 38 98 C38.0446803 102.21419991 38.11504396 106.42702234 38.20751953 110.64038086 C38.23545241 112.06864986 38.25680215 113.4970655 38.27099609 114.92553711 C38.36610501 123.96405407 39.27941361 131.62484101 43 140 C43.33 140.99 43.66 141.98 44 143 C29.48 143 14.96 143 0 143 C1.32 140.03 2.64 137.06 4 134 C5.85928552 127.35940502 6.29712048 121.26529594 6.29052734 114.39404297 C6.29724457 113.37319107 6.30396179 112.35233917 6.31088257 111.30055237 C6.3297765 107.94771363 6.33378277 104.59507607 6.3359375 101.2421875 C6.34237257 98.89201783 6.34910145 96.54184894 6.35610962 94.19168091 C6.36806178 89.27099757 6.37179268 84.35038432 6.37060547 79.4296875 C6.37040268 73.15922541 6.39767372 66.88921853 6.43214989 60.61886406 C6.4545145 55.76461775 6.45844004 50.91047921 6.45738602 46.05618668 C6.45972879 43.74638428 6.46847665 41.43657831 6.48405075 39.12682724 C7.050551 18.72233217 7.050551 18.72233217 0 0 Z M38 22 C38 39.82 38 57.64 38 76 C59.50171225 77.37530612 59.50171225 77.37530612 76.8125 70.25 C82.64608457 64.24974159 85.52764154 57.64485819 86.375 49.3125 C86.26246446 43.60694826 83.97310614 38.28510572 82 33 C81.34 33 80.68 33 80 33 C79.773125 32.4225 79.54625 31.845 79.3125 31.25 C75.93713995 25.46366849 71.26224395 24.34834148 65 22 C56.09 22 47.18 22 38 22 Z " fill="#FFFFFF" transform="translate(301,76)"/>
<path d="M0 0 C33.66 0 67.32 0 102 0 C102 9.24 102 18.48 102 28 C100.35 27.34 98.7 26.68 97 26 C89.70040571 23.31312722 83.05361184 22.53681577 75.3046875 22.48828125 C73.69450241 22.46135445 73.69450241 22.46135445 72.05178833 22.43388367 C68.65956423 22.38016961 65.26747765 22.34601012 61.875 22.3125 C59.55987685 22.27929259 57.24477177 22.24479982 54.9296875 22.20898438 C49.28644279 22.12207194 43.64380141 22.06166927 38 22 C38 34.54 38 47.08 38 60 C43.65664086 59.92563799 49.31180434 59.84248421 54.96777344 59.73754883 C56.88794037 59.70449254 58.80819997 59.67640188 60.72851562 59.65356445 C63.50430439 59.61966059 66.27925852 59.56733091 69.0546875 59.51171875 C69.8998996 59.50532883 70.74511169 59.4989389 71.61593628 59.49235535 C79.36688209 59.30527537 86.0705394 57.4647303 93 54 C93 65.55 93 77.1 93 89 C92.34 89 91.68 89 91 89 C91 88.34 91 87.68 91 87 C89.48129302 86.514136 87.95989301 86.03668799 86.4375 85.5625 C85.59058594 85.29566406 84.74367188 85.02882813 83.87109375 84.75390625 C77.77651313 83.15356059 71.70307293 82.82272678 65.44140625 82.68359375 C64.7407605 82.66494263 64.04011475 82.6462915 63.3182373 82.6270752 C60.73310398 82.55943967 58.14778962 82.49887152 55.5625 82.4375 C49.766875 82.293125 43.97125 82.14875 38 82 C38 94.87 38 107.74 38 121 C45.79269022 120.92580827 53.58427364 120.84279675 61.37646484 120.73754883 C64.02419189 120.70440778 66.67198774 120.6763426 69.31982422 120.65356445 C73.13799206 120.61981983 76.95553543 120.56749212 80.7734375 120.51171875 C81.94675629 120.50532883 83.12007507 120.4989389 84.32894897 120.49235535 C93.06015991 120.33810157 100.17884824 118.91057588 108 115 C108 124.24 108 133.48 108 143 C72.36 143 36.72 143 0 143 C0 142.34 0 141.68 0 141 C0.66 141 1.32 141 2 141 C2.12375 140.319375 2.2475 139.63875 2.375 138.9375 C3 136 3 136 4.02189636 133.01594543 C5.457326 128.00528597 5.28705263 122.98272488 5.2746582 117.80737305 C5.27976913 116.70075317 5.28488007 115.5941333 5.29014587 114.45397949 C5.30401202 110.80650377 5.30308712 107.15921766 5.30078125 103.51171875 C5.30467015 100.96735057 5.30900522 98.42298303 5.31376648 95.87861633 C5.32122256 90.54836658 5.32108107 85.21818593 5.31567383 79.88793945 C5.30964039 73.74798837 5.32193407 67.60826682 5.3432439 61.46835488 C5.36306139 55.53793598 5.36602434 49.60758746 5.36250877 43.67713356 C5.36302073 41.16504185 5.36823481 38.65294638 5.37832069 36.14087486 C5.39071872 32.62067601 5.38387242 29.10100161 5.37231445 25.58081055 C5.37995819 24.55242569 5.38760193 23.52404083 5.39547729 22.4644928 C5.33587853 14.211968 3.69163806 7.38327611 0 0 Z " fill="#FFFFFF" transform="translate(874,76)"/>
<path d="M0 0 C2.68655298 -0.39178898 4.38637621 -0.56970002 7 0 C9.0670153 1.56685957 10.83690706 3.33226529 12.69921875 5.13671875 C15.34772821 7.28160672 17.81651054 8.30268761 21 9.5 C30.30434418 13.10924182 36.33716164 19.21116323 41 28 C45.86930529 41.27992352 42.52806455 53.76516496 37.15625 66.1640625 C36.22452241 68.44931328 35.54347822 70.54410554 35 72.9375 C33.72110123 76.8541275 32.27501263 78.50814257 29 81 C26.35661174 81.86782935 23.72565385 82.40944167 21 83 C19.40587716 86.18824568 19.89825265 89.62896662 19.9375 93.125 C19.94201172 93.87910156 19.94652344 94.63320312 19.95117188 95.41015625 C19.96296501 97.27347127 19.98090058 99.13674555 20 101 C20.99 100.67 21.98 100.34 23 100 C23.07347656 98.73542969 23.07347656 98.73542969 23.1484375 97.4453125 C23.22320312 96.34960938 23.29796875 95.25390625 23.375 94.125 C23.44460937 93.03445312 23.51421875 91.94390625 23.5859375 90.8203125 C24 88 24 88 26 86 C27.32 86 28.64 86 30 86 C29.88385202 87.83391542 29.75656767 89.66712628 29.625 91.5 C29.55539063 92.5209375 29.48578125 93.541875 29.4140625 94.59375 C29 98 29 98 27.984375 101.67578125 C26.33959751 107.90446265 26.64176465 114.3743865 26.609375 120.77539062 C26.43358223 128.24170035 26.43358223 128.24170035 24.1953125 132.15625 C21.581969 134.35108653 19.55375062 134.89202638 16.13671875 134.68359375 C12.54021487 133.53297551 10.55201326 130.91943896 8.078125 128.16796875 C4.07019004 123.98675841 -0.92981761 121.0562155 -6.0625 118.4375 C-6.701875 117.963125 -7.34125 117.48875 -8 117 C-8.3125 114.3125 -8.3125 114.3125 -8 112 C-4.18510326 110.53273202 -1.70988378 111.56663581 2 113 C2.103125 111.906875 2.20625 110.81375 2.3125 109.6875 C3.00438399 105.97648587 3.27148023 105.27376648 6 103 C6.495 101.515 6.495 101.515 7 100 C6.113125 100.680625 5.22625 101.36125 4.3125 102.0625 C1 104 1 104 -1.6875 103.8125 C-2.450625 103.544375 -3.21375 103.27625 -4 103 C-4.99 102.67 -5.98 102.34 -7 102 C-9.7115029 97.93274566 -9.57867488 94.8452389 -10 90 C-10.66 92.97 -11.32 95.94 -12 99 C-12.66 99 -13.32 99 -14 99 C-14 99.99 -14 100.98 -14 102 C-17.51253146 104.34168764 -18.86469356 104.49623677 -23 104 C-25.875 102 -25.875 102 -28 100 C-26.99148251 103.3922861 -26.4823515 104.71288601 -23.375 106.5625 C-22.59125 107.036875 -21.8075 107.51125 -21 108 C-21 109.32 -21 110.64 -21 112 C-20.2575 111.484375 -19.515 110.96875 -18.75 110.4375 C-16 109 -16 109 -13.6875 109.3125 C-13.130625 109.539375 -12.57375 109.76625 -12 110 C-11.625 113.1875 -11.625 113.1875 -12 117 C-14.6875 119.4375 -14.6875 119.4375 -16.37109375 120.6171875 C-18.29203029 122.2479106 -19.10134004 123.83105306 -20.25 126.0625 C-22.81632128 130.53883745 -25.98792488 131.63646867 -30.79296875 133.11328125 C-33.33771179 133.89419009 -33.33771179 133.89419009 -35 137 C-38.27914568 136.43463006 -39.93380808 135.6296988 -42 133 C-43.65116849 129.48752791 -44.2304655 126.81311328 -44.125 122.9453125 C-44.10953125 122.00042969 -44.0940625 121.05554688 -44.078125 120.08203125 C-44.02624793 118.11848412 -43.97416624 116.15494239 -43.921875 114.19140625 C-43.83187472 108.6788892 -44.30090993 104.30142445 -46 99 C-46.1953125 96.12890625 -46.1953125 96.12890625 -46.125 93.5625 C-46.10695313 92.69753906 -46.08890625 91.83257812 -46.0703125 90.94140625 C-46.04710938 90.30074219 -46.02390625 89.66007812 -46 89 C-44.07421875 89.81640625 -44.07421875 89.81640625 -42 91 C-39.66730832 96.77034257 -39.42357379 102.83588671 -39 109 C-36.59963104 106.59963104 -37.33100573 100.98171484 -37.125 97.75 C-37.03992188 96.79480469 -36.95484375 95.83960938 -36.8671875 94.85546875 C-36.45423669 88.95844435 -36.45423669 88.95844435 -39.3671875 83.953125 C-40.23601562 83.30859375 -41.10484375 82.6640625 -42 82 C-44 80 -44 80 -44.1875 77 C-44 74 -44 74 -43 72 C-42.38095025 67.44938988 -42.38095025 67.44938988 -44.12890625 63.33740234 C-45.68710505 61.69630981 -47.30270111 60.18410477 -49 58.6875 C-51.03731935 56.82225154 -53.02687241 54.93495696 -55 53 C-55 52.34 -55 51.68 -55 51 C-52.36 51.33 -49.72 51.66 -47 52 C-51.66804118 48.37988643 -55.2392897 46.29322068 -61 45 C-60.34 44.01 -59.68 43.02 -59 42 C-55.41256304 42.32613063 -53.54033441 43.28893763 -50.875 45.5625 C-46.32483119 49.073495 -41.49389294 48.44706181 -36 48 C-36 46.35 -36 44.7 -36 43 C-34.25372522 45.61941217 -33.61277612 47.03824877 -33 50 C-33.53340409 43.33244893 -35.61487687 39.68326353 -40 34.75 C-44.66280563 32.03003005 -49.69661375 31.6428347 -55 31 C-55 30.01 -55 29.02 -55 28 C-52.17375962 26.58687981 -50.13919335 26.75176695 -47 27 C-44.2890625 28.34765625 -44.2890625 28.34765625 -41.625 30.0625 C-37.9407145 32.21460658 -35.59648309 33.46090888 -31.3125 32.875 C-30.219375 32.58625 -29.12625 32.2975 -28 32 C-28.08378906 32.556875 -28.16757813 33.11375 -28.25390625 33.6875 C-28.79068001 37.70990593 -29.08883019 41.29091473 -28.4375 45.3125 C-27.99228195 49.0650521 -28.13822757 49.9335513 -30 53 C-30 54.32 -30 55.64 -30 57 C-24.70401019 46.85767989 -20.67545718 37.66731453 -21 26 C-22.84868459 21.2942574 -25.11720727 19.75146948 -29.5625 17.75 C-30.70912109 17.30914062 -30.70912109 17.30914062 -31.87890625 16.859375 C-34 16 -34 16 -37 14 C-36.67 12.35 -36.34 10.7 -36 9 C-33 10 -33 10 -31 13 C-28.62766389 12.96219702 -28.62766389 12.96219702 -26 12 C-24.65729179 10.00628175 -23.32346506 8.0065438 -22 6 C-20.68 6 -19.36 6 -18 6 C-18.25 7.8125 -18.25 7.8125 -19 10 C-20.33333333 11 -21.66666667 12 -23 13 C-23.64732408 15.04669355 -23.64732408 15.04669355 -24 17 C-21.41638482 17.05407567 -18.83390745 17.093707 -16.25 17.125 C-15.52039063 17.14175781 -14.79078125 17.15851562 -14.0390625 17.17578125 C-9.86478602 17.21372922 -7.83029454 16.91514727 -4 15 C-4 11.7 -4 8.4 -4 5 C-3.01 4.67 -2.02 4.34 -1 4 C-0.26676204 1.98491642 -0.26676204 1.98491642 0 0 Z " fill="#F8F8F9" transform="translate(140,38)"/>
<path d="M0 0 C39.27 0 78.54 0 119 0 C119 9.24 119 18.48 119 28 C115.37 26.68 111.74 25.36 108 24 C103.82543775 23.07111176 99.77793686 22.82593123 95.5078125 22.68359375 C94.30898438 22.64169922 93.11015625 22.59980469 91.875 22.55664062 C90.6375 22.51732422 89.4 22.47800781 88.125 22.4375 C86.86429688 22.39431641 85.60359375 22.35113281 84.3046875 22.30664062 C81.20322577 22.20090898 78.10168855 22.09881429 75 22 C75.08449772 35.27419219 75.17941788 48.54826545 75.28752708 61.82228756 C75.33740521 67.98640137 75.38373603 74.15049875 75.421875 80.31469727 C75.45883489 86.26700452 75.50522392 92.21917139 75.55806351 98.17135811 C75.57655062 100.43863009 75.59167939 102.70593209 75.60334396 104.97324944 C75.62030377 108.15670932 75.64936227 111.33985166 75.68115234 114.52319336 C75.68331253 115.45396194 75.68547272 116.38473053 75.68769836 117.34370422 C75.80727905 126.75967177 77.79665864 134.59331728 82 143 C67.48 143 52.96 143 38 143 C40 137 40 137 41.10507202 134.29293823 C42.37497326 129.62026463 42.30840654 125.13510269 42.31884766 120.31298828 C42.33391609 118.71696526 42.33391609 118.71696526 42.34928894 117.08869934 C42.38010357 113.58257573 42.39715154 110.07652843 42.4140625 106.5703125 C42.4327755 104.1350743 42.45234901 101.69984258 42.4727478 99.26461792 C42.52406088 92.86303526 42.56369119 86.46143158 42.60089111 80.05975342 C42.64093579 73.52415775 42.69202606 66.98864946 42.7421875 60.453125 C42.83893711 47.63547915 42.92372033 34.81778317 43 22 C38.91592173 22.08217187 34.83319912 22.19488611 30.75 22.3125 C29.61046875 22.33505859 28.4709375 22.35761719 27.296875 22.38085938 C17.57790297 22.68457725 9.03089042 24.38764383 0 28 C0 18.76 0 9.52 0 0 Z " fill="#FFFFFF" transform="translate(740,76)"/>
<path d="M0 0 C1.03122482 -0.00018127 1.03122482 -0.00018127 2.08328247 -0.00036621 C19.11693695 0.04235765 32.24512116 3.67021608 46.3125 13.25 C46.96468506 13.69126221 47.61687012 14.13252441 48.28881836 14.5871582 C50.13514413 15.84253076 51.97498358 17.10678034 53.8125 18.375 C54.64910156 18.94863281 55.48570312 19.52226563 56.34765625 20.11328125 C60.35076112 22.97484562 63.30763215 26.03724642 66.38671875 29.86328125 C67.86972223 31.62142487 67.86972223 31.62142487 70.75 32.75 C75.31377982 35.17159746 78.04764584 39.06411792 80.8125 43.375 C80.8125 44.035 80.8125 44.695 80.8125 45.375 C81.37066406 45.61992188 81.92882812 45.86484375 82.50390625 46.1171875 C90.8234048 50.64997689 97.81106493 58.3706948 100.8125 67.375 C100.96127911 69.9729122 101.04353235 72.52643149 101.0625 75.125 C101.083125 75.8159375 101.10375 76.506875 101.125 77.21875 C101.17074264 83.30252145 99.36752918 87.74520816 96.30029297 92.93237305 C91.57747189 101.32450617 91.02204532 108.44568696 91.1875 117.9375 C91.44292376 139.09425033 91.44292376 139.09425033 85.06201172 146.37133789 C79.68963127 151.35886619 74.38807416 152.76631187 67.125 152.75 C66.41891602 152.74911377 65.71283203 152.74822754 64.98535156 152.74731445 C57.03779502 152.56850351 51.1012017 150.16362186 44.8125 145.375 C44.69546553 149.54142697 44.62496899 153.7074259 44.5625 157.875 C44.51222656 159.63457031 44.51222656 159.63457031 44.4609375 161.4296875 C44.3488419 171.40619591 46.24664061 177.16624779 53.1875 184.375 C60.9421026 192.68986946 68.0134335 200.78714724 69 212.4375 C69.13827918 213.80349148 69.2775863 215.16937932 69.41796875 216.53515625 C69.54816406 217.80230469 69.67835938 219.06945312 69.8125 220.375 C70.12803824 222.3778846 70.45445284 224.37927624 70.8125 226.375 C70.1525 226.705 69.4925 227.035 68.8125 227.375 C66.24411943 222.58847258 65.53175621 218.47873854 65 213.0625 C63.71626309 201.633326 57.89947837 195.22173039 50.22265625 187.05859375 C43.72125188 179.81959083 40.64770311 174.18344466 40.71484375 164.42578125 C40.71696617 163.26685616 40.71696617 163.26685616 40.71913147 162.08451843 C40.72472534 159.61880611 40.73727667 157.15318485 40.75 154.6875 C40.75501579 153.01497527 40.75957856 151.34244912 40.76367188 149.66992188 C40.77469276 145.57157954 40.79195316 141.47330521 40.8125 137.375 C41.8025 137.375 42.7925 137.375 43.8125 137.375 C44.286875 138.261875 44.76125 139.14875 45.25 140.0625 C48.50945952 145.22126864 54.15504408 146.88320157 59.8125 148.375 C66.63760037 149.23594857 73.43417777 149.73606894 79.5625 146.1875 C83.88591585 142.82067508 85.57470682 140.04125075 86.359375 134.54296875 C86.75857552 130.67271389 86.90876005 126.83081927 86.98828125 122.94140625 C87.01212891 121.79736328 87.03597656 120.65332031 87.06054688 119.47460938 C87.1034411 117.12062608 87.13473212 114.76640215 87.15429688 112.41210938 C87.37987122 103.09011823 89.21274975 95.98199217 94.5625 88.3125 C98.29941245 81.78163432 98.0315637 73.63371716 96.8125 66.375 C94.02035316 58.63955816 86.88100187 53.56931232 80.8125 48.375 C78.01485849 45.75981337 75.97816059 43.64919684 74 40.375 C71.55803365 37.02601757 69.39369558 35.79785875 65.87109375 33.78125 C63.61872203 32.24262795 62.2444762 30.63845385 60.5625 28.5 C56.95755377 24.12315185 52.78795994 21.78513248 47.84765625 19.09765625 C45.01180761 17.48812054 42.5259727 15.72440339 39.9375 13.75 C23.20960238 1.8397369 1.16367898 1.75602743 -18.3125 4.875 C-27.27476164 6.40614816 -35.23511778 9.13506679 -43.59057617 12.65332031 C-50.22389982 15.32513723 -56.18993211 16.23704883 -63.3293457 16.07495117 C-68.50658314 16.00483195 -71.24519412 17.02033161 -75.1875 20.375 C-77.06229456 22.75920461 -77.06229456 22.75920461 -78.4375 25.375 C-78.91703125 26.220625 -79.3965625 27.06625 -79.890625 27.9375 C-81.18374053 30.2814318 -81.18374053 30.2814318 -82.0625 32.44140625 C-83.58786432 35.06312617 -85.53549769 36.47460429 -87.9375 38.3125 C-88.83597656 39.01503906 -89.73445313 39.71757813 -90.66015625 40.44140625 C-92.55491095 41.89102538 -94.46196049 43.32459801 -96.375 44.75 C-104.97769724 52.77918409 -110.15498269 62.77354952 -110.65844727 74.546875 C-110.91382257 93.91247826 -100.9283528 113.21191027 -88.98828125 128.12109375 C-86.62067149 132.39922592 -86.83554824 135.53456347 -87.125 140.3125 C-87.47458655 146.56853385 -87.17547337 150.77881966 -84.1875 156.375 C-79.80027287 160.48802543 -75.05083716 160.88261526 -69.25 160.8671875 C-63.70285703 159.97568238 -59.60588788 156.67386392 -55.1875 153.375 C-54.1975 152.715 -53.2075 152.055 -52.1875 151.375 C-51.19038059 166.99653736 -57.14701739 177.62553573 -65.1875 190.375 C-73.84301276 204.28030552 -75.66193623 214.24416829 -75.1875 230.375 C-78.1875 228.375 -78.1875 228.375 -78.85546875 226.09765625 C-80.82993496 209.90703332 -75.33415107 199.1760164 -66.953125 185.85546875 C-61.55672575 177.22381373 -56.76606152 168.54795199 -55.1875 158.375 C-56.6725 159.303125 -56.6725 159.303125 -58.1875 160.25 C-64.55708437 163.86413036 -70.92303474 164.96084397 -78.1875 164.375 C-83.45344344 162.51643173 -85.98145768 159.77185804 -89.1875 155.375 C-90.12695896 152.55662311 -90.25142794 151.1782111 -90.1171875 148.3046875 C-89.86682669 135.1291205 -93.01688331 127.71776369 -100.81005859 117.28417969 C-111.20047919 102.88271051 -116.04543236 85.76929667 -113.9140625 68.109375 C-111.08990714 55.00103125 -102.33691286 44.60540623 -92.1875 36.375 C-91.23875 35.570625 -90.29 34.76625 -89.3125 33.9375 C-87.1875 32.375 -87.1875 32.375 -85.1875 32.375 C-84.878125 31.1684375 -84.878125 31.1684375 -84.5625 29.9375 C-82.0343377 23.38726131 -78.22169421 17.18607003 -72.1875 13.375 C-68.51026164 12.1154402 -64.85694103 12.26873948 -61 12.1875 C-52.34889022 11.82545356 -45.02474452 9.21290317 -37.02783203 6.08105469 C-24.85289515 1.41006537 -12.99129308 -0.03499757 0 0 Z " fill="#EEF0F2" transform="translate(137.1875,22.625)"/>
<path d="M0 0 C4.50237709 0.37519809 5.55797732 1.18965428 8.75 4.3125 C10.35345919 6.81487892 11.61815841 9.43496158 12.875 12.125 C13.20886719 12.81142578 13.54273438 13.49785156 13.88671875 14.20507812 C14.86422737 16.23101266 15.81306921 18.26751635 16.75 20.3125 C17.0500293 20.96138184 17.35005859 21.61026367 17.65917969 22.27880859 C18.94239977 25.14085573 19.75 27.13860056 19.75 30.3125 C20.74 30.3125 21.73 30.3125 22.75 30.3125 C22.22462276 25.2822924 21.64405214 20.29364761 20.75 15.3125 C23.0625 14.6875 23.0625 14.6875 25.75 14.3125 C29.58233129 16.86738752 30.82843671 20.03155145 32.75 24.0625 C33.09289062 24.76632813 33.43578125 25.47015625 33.7890625 26.1953125 C34.46405996 27.58137599 35.13560964 28.96912454 35.8034668 30.35864258 C36.66808386 32.14340666 37.56112356 33.91432981 38.45703125 35.68359375 C41.12408863 41.10634185 40.86601301 46.39583626 40.75 52.3125 C39.1 52.6425 37.45 52.9725 35.75 53.3125 C33.64172945 50.15009418 33.41182535 48.80592531 33.125 45.125 C33.01285156 43.77341797 33.01285156 43.77341797 32.8984375 42.39453125 C32.84945312 41.70746094 32.80046875 41.02039063 32.75 40.3125 C29.83347826 40.14568891 29.83347826 40.14568891 26.75 40.3125 C23.91729926 43.14520074 23.01623617 46.61402268 21.6875 50.3125 C18.82903226 58.15443548 18.82903226 58.15443548 17.75 60.3125 C17.66691362 61.68798156 17.64263984 63.06735796 17.65234375 64.4453125 C17.65556641 65.25097656 17.65878906 66.05664062 17.66210938 66.88671875 C17.67048828 67.72847656 17.67886719 68.57023437 17.6875 69.4375 C17.69201172 70.28699219 17.69652344 71.13648438 17.70117188 72.01171875 C17.71297126 74.11200909 17.73090694 76.2122633 17.75 78.3125 C15.77 79.3025 15.77 79.3025 13.75 80.3125 C10.02398581 73.85407541 10.55782128 66.47861946 10.5625 59.25 C10.56185547 58.21939453 10.56121094 57.18878906 10.56054688 56.12695312 C10.60491682 49.72558013 11.12666504 43.68030257 12.29296875 37.37890625 C12.84621221 33.66697362 13.01563139 29.99588321 13.0625 26.25 C13.07925781 25.02152344 13.09601563 23.79304688 13.11328125 22.52734375 C12.71254094 18.98100747 12.20489231 17.82874785 9.75 15.3125 C7.41190811 14.69916319 7.41190811 14.69916319 4.78515625 14.78125 C3.82029297 14.77609375 2.85542969 14.7709375 1.86132812 14.765625 C0.85521484 14.78109375 -0.15089844 14.7965625 -1.1875 14.8125 C-2.18974609 14.79703125 -3.19199219 14.7815625 -4.22460938 14.765625 C-9.81612665 14.7858544 -9.81612665 14.7858544 -14.9140625 16.8203125 C-17.14380634 20.97989311 -16.72615679 25.34367793 -16.65039062 29.9375 C-16.7109573 33.9705279 -17.01086588 36.54092567 -19.5859375 39.74609375 C-22.33254511 42.39201926 -24.82038464 43.71201283 -28.25 45.3125 C-31.28853967 49.8703095 -31.02342006 53.96945645 -30.25 59.3125 C-28.85702793 62.96095302 -27.24273306 66.4530965 -25.59375 69.9921875 C-23.77058853 74.49709229 -23.61185679 77.52642595 -24.25 82.3125 C-25.24 83.3025 -25.24 83.3025 -26.25 84.3125 C-27.24 84.3125 -28.23 84.3125 -29.25 84.3125 C-29.37117188 83.64863281 -29.49234375 82.98476562 -29.6171875 82.30078125 C-30.91612583 74.10861378 -30.91612583 74.10861378 -35.25 67.3125 C-38.73397425 67.0300156 -41.85598928 67.53672612 -45.25 68.3125 C-48.7939623 62.99655654 -48.45665808 56.95331295 -48.5 50.75 C-48.520625 50.00814453 -48.54125 49.26628906 -48.5625 48.50195312 C-48.59442804 44.02005433 -48.34825992 40.83642175 -45.25 37.3125 C-43.93 37.3125 -42.61 37.3125 -41.25 37.3125 C-41.25 44.2425 -41.25 51.1725 -41.25 58.3125 C-40.59 58.6425 -39.93 58.9725 -39.25 59.3125 C-37.13751874 51.02544752 -36.88357328 42.95933815 -36.875 34.4375 C-36.85050781 33.13296875 -36.82601562 31.8284375 -36.80078125 30.484375 C-36.79691406 29.23398438 -36.79304688 27.98359375 -36.7890625 26.6953125 C-36.78084473 25.56496582 -36.77262695 24.43461914 -36.76416016 23.27001953 C-37.35474399 19.67487755 -38.59020446 18.68598676 -41.25 16.3125 C-41.5 13.5625 -41.5 13.5625 -41.25 11.3125 C-40.26 10.9825 -39.27 10.6525 -38.25 10.3125 C-32.90058332 14.32456251 -31.79158275 19.13537883 -30.046875 25.44921875 C-29.37160559 28.22847798 -29.37160559 28.22847798 -28.25 30.3125 C-27.26 29.9825 -26.27 29.6525 -25.25 29.3125 C-24.10297571 26.75432 -24.10297571 26.75432 -23.125 23.6875 C-20.88653726 17.97672307 -18.54178259 15.43109858 -13.5390625 12.04296875 C-9.66479352 9.11412718 -7.06801413 5.22081722 -4.25 1.3125 C-3.25 0.3125 -3.25 0.3125 0 0 Z " fill="#F3F3F4" transform="translate(131.25,160.6875)"/>
<path d="M0 0 C1.8125 0.8125 1.8125 0.8125 2.8125 1.8125 C3.78264612 8.57580437 2.45550287 14.36839967 0.3125 20.75 C-6.5449809 42.36665551 -0.14564201 62.35518302 9.8125 82 C13.78373416 90.08753624 14.34591275 97.75082042 11.625 106.375 C9.72858219 109.97165447 8.18994284 111.61716215 4.8125 113.8125 C3.8225 114.4725 2.8325 115.1325 1.8125 115.8125 C-1.25417238 116.35806906 -4.11777874 116.33673057 -7.1875 115.8125 C-13.08021805 111.45701275 -15.06162632 106.08443307 -16.125 99.0625 C-16.29322266 97.64710938 -16.29322266 97.64710938 -16.46484375 96.203125 C-16.93927603 93.67610926 -16.93927603 93.67610926 -19.078125 92.65625 C-19.77421875 92.3778125 -20.4703125 92.099375 -21.1875 91.8125 C-28.70602364 84.46105466 -34.15698259 74.3050409 -35.1875 63.8125 C-32.99363988 66.33543914 -31.66450862 68.88908004 -30.375 71.9375 C-25.52107769 83.31563697 -25.52107769 83.31563697 -16.1875 90.8125 C-12.93572148 91.14844133 -12.93572148 91.14844133 -10.1875 90.8125 C-10.1875 84.32748508 -12.37519378 80.54277755 -15.8894043 75.16430664 C-20.21204104 68.4330556 -23.20345891 61.21323851 -26.1875 53.8125 C-26.53941406 52.96816406 -26.89132813 52.12382813 -27.25390625 51.25390625 C-29.97151317 44.09885421 -31.76226781 34.89835877 -29 27.5625 C-27.1875 24.8125 -27.1875 24.8125 -25.0625 23.8125 C-24.44375 23.8125 -23.825 23.8125 -23.1875 23.8125 C-22.8575 24.1425 -22.5275 24.4725 -22.1875 24.8125 C-22.28056125 26.60768144 -22.43885326 28.39957209 -22.625 30.1875 C-24.21628158 43.6655741 -24.21628158 43.6655741 -19.1875 55.8125 C-15.95958445 57.9644437 -14.90349191 58.01336443 -11.1875 57.8125 C-9.76423819 54.96597637 -10.02300699 52.50112075 -9.9765625 49.3203125 C-9.95088055 47.9703628 -9.92440008 46.62042811 -9.8972168 45.27050781 C-9.88395355 44.56236938 -9.87069031 43.85423096 -9.85702515 43.12463379 C-9.64532929 32.72585464 -9.35957168 22.37147646 -7.875 12.0625 C-7.71668701 10.86971436 -7.71668701 10.86971436 -7.55517578 9.65283203 C-6.82602882 5.14692389 -5.5216975 -0.47328836 0 0 Z " fill="#F6F7F7" transform="translate(70.1875,50.1875)"/>
<path d="M0 0 C4 0 4 0 5.68554688 1.53710938 C10.93737742 9.438271 10.79199368 16.84633026 10.5625 26.00097656 C10.50081456 28.46743014 10.48058756 30.93129181 10.46875 33.3984375 C10.37340023 43.05819497 9.6484921 52.53788297 8.43823242 62.11938477 C7.76356199 68.0936948 7.07799619 74.23398858 9 80 C10.11375 79.5875 11.2275 79.175 12.375 78.75 C13.00148437 78.51796875 13.62796875 78.2859375 14.2734375 78.046875 C16.58565645 76.64489609 17.01736102 75.52072841 18 73 C18.4442275 68.20194815 18.3369681 63.37890749 18.3125 58.5625 C18.31134186 57.8696994 18.31018372 57.1768988 18.30899048 56.46310425 C18.26686368 36.19858515 18.26686368 36.19858515 13.39453125 16.68359375 C12 13 12 13 12 9 C14.71036469 9.99991293 15.79438026 10.601433 17.14086914 13.21142578 C17.43598389 14.1136084 17.73109863 15.01579102 18.03515625 15.9453125 C18.36966797 16.94046875 18.70417969 17.935625 19.04882812 18.9609375 C19.38333984 20.00507812 19.71785156 21.04921875 20.0625 22.125 C20.74013443 24.16951989 21.41850662 26.21379543 22.09765625 28.2578125 C22.41879395 29.24426758 22.73993164 30.23072266 23.07080078 31.24707031 C23.87079855 33.6172161 24.74865616 35.92327013 25.68359375 38.2421875 C28.41596373 46.04200921 28.12896411 53.83002668 28.0625 62 C28.05798828 63.06089844 28.05347656 64.12179688 28.04882812 65.21484375 C28.03713843 67.80995598 28.02075276 70.40494709 28 73 C29.97536745 72.65213292 29.97536745 72.65213292 32 72 C33.39850246 69.20299508 33.0101384 67.01884641 32.87890625 63.8984375 C32.80639648 62.08085938 32.80639648 62.08085938 32.73242188 60.2265625 C32.64831055 58.32003906 32.64831055 58.32003906 32.5625 56.375 C32.48418945 54.456875 32.48418945 54.456875 32.40429688 52.5 C32.2743123 49.333103 32.13933598 46.16649713 32 43 C33.875 42.375 33.875 42.375 36 42 C38 44 38 44 38.23046875 47.3359375 C38.22647737 48.68236193 38.21172163 50.02878754 38.1875 51.375 C38.18685547 52.04789063 38.18621094 52.72078125 38.18554688 53.4140625 C38.14077721 58.46806031 38.14077721 58.46806031 37.50048828 60.88745117 C36.89678168 63.43568202 36.85529315 65.78382261 36.82421875 68.40234375 C36.25341852 97.00382622 36.25341852 97.00382622 29.375 104.1875 C28.59125 104.785625 27.8075 105.38375 27 106 C26.01 106.99 26.01 106.99 25 108 C19.2145304 108.66755418 16.53794251 107.51343253 12 104 C10.25987208 101.90692161 8.74712368 99.93318552 7.25 97.6875 C6.86457031 97.14416016 6.47914063 96.60082031 6.08203125 96.04101562 C-0.03051812 87.08369847 0.09106853 77.55715958 1.875 67.25 C2.43323329 64.36136422 3.11170704 61.65563453 4.02075195 58.85327148 C5.08995601 54.6460295 5.30612367 50.9561573 5.30078125 46.64453125 C5.30720894 45.47019783 5.30720894 45.47019783 5.31376648 44.2721405 C5.31948055 42.62243612 5.32003173 40.97270657 5.31567383 39.32299805 C5.3125305 36.83662364 5.33595093 34.3514607 5.36132812 31.86523438 C5.52940483 16.75408286 5.52940483 16.75408286 0 3 C0 2.01 0 1.02 0 0 Z " fill="#F5F5F6" transform="translate(182,47)"/>
<path d="M0 0 C3.34910651 1.25591494 4.01458724 2.74386256 5.5 5.9375 C6.31150356 8.68307535 6.63922392 11.18593938 6.7109375 14.04296875 C6.73712158 14.84903564 6.76330566 15.65510254 6.7902832 16.4855957 C6.81823975 17.35659912 6.84619629 18.22760254 6.875 19.125 C7.55761575 35.73434206 9.07339641 52.38233204 13.53515625 68.4375 C14.673197 72.56577739 15.57104585 76.75720633 16.5 80.9375 C8.58 80.9375 0.66 80.9375 -7.5 80.9375 C-10.46643287 64.3148815 -13.01261521 47.91951766 -13.0625 31 C-13.07667969 29.73534912 -13.09085937 28.47069824 -13.10546875 27.16772461 C-13.00455656 17.78352167 -11.05058219 9.66004914 -5.5 1.9375 C-2.5 -0.0625 -2.5 -0.0625 0 0 Z " fill="#FBFBFB" transform="translate(127.5,197.0625)"/>
<path d="M0 0 C4.55315948 0.61811534 8.28459767 2.46765893 12.3125 4.5625 C13.28026367 5.0565332 13.28026367 5.0565332 14.26757812 5.56054688 C15.84785228 6.36824255 17.42432105 7.18337613 19 8 C19 8.66 19 9.32 19 10 C20.65 10.66 22.3 11.32 24 12 C24 12.66 24 13.32 24 14 C24.99 14.33 25.98 14.66 27 15 C28.7890625 16.70703125 28.7890625 16.70703125 30.625 18.8125 C31.23601563 19.49957031 31.84703125 20.18664062 32.4765625 20.89453125 C33.99653007 22.99520438 34.57890154 24.46771872 35 27 C35.66 27 36.32 27 37 27 C47.57204868 50.12849485 51.05117824 75.5256671 42.8125 100.1875 C35.42948561 119.34869572 23.78792172 130.93650189 5.53125 139.96875 C3 141 3 141 0 141 C0 140.34 0 139.68 0 139 C6.75 135 6.75 135 9 135 C9 134.34 9 133.68 9 133 C11.475 132.01 11.475 132.01 14 131 C14 130.34 14 129.68 14 129 C14.70125 128.484375 15.4025 127.96875 16.125 127.4375 C19.47683663 124.59572546 21.39228844 121.55087379 23.66796875 117.828125 C24.10753906 117.22484375 24.54710937 116.6215625 25 116 C25.66 116 26.32 116 27 116 C27.10570312 115.47277344 27.21140625 114.94554687 27.3203125 114.40234375 C28.52539684 110.14299392 30.57921899 106.2038543 32.4296875 102.19140625 C36.6249344 91.79345982 37.52713082 81.3002991 37.4375 70.1875 C37.42992676 68.86959473 37.42235352 67.55168945 37.41455078 66.19384766 C37.18133793 52.40364833 34.89231197 41.46771531 28.171875 29.2578125 C27 27 27 27 27 25 C26.34 25 25.68 25 25 25 C23.84375 23.34765625 23.84375 23.34765625 22.5 21.0625 C18.2491848 14.44546747 12.29398936 8.21002757 5 5 C5 4.34 5 3.68 5 3 C4.360625 2.87625 3.72125 2.7525 3.0625 2.625 C2.381875 2.41875 1.70125 2.2125 1 2 C0.67 1.34 0.34 0.68 0 0 Z " fill="#A5BFCC" transform="translate(548,77)"/>
<path d="M0 0 C8.6898918 1.01382071 14.61727776 5.21127052 21 11 C21 11.66 21 12.32 21 13 C21.66 13 22.32 13 23 13 C32.38520409 25.52231966 34.19679071 39.89574968 32.69140625 55.12109375 C31.75574681 61.62102877 30.03034019 67.17468584 27 73 C26.34 73 25.68 73 25 73 C24.731875 73.763125 24.46375 74.52625 24.1875 75.3125 C23.04865495 77.88988618 22.18583329 79.26954864 20 81 C19.34 81 18.68 81 18 81 C17.67 81.99 17.34 82.98 17 84 C12.80730812 86.63070863 8.44915935 88.82967837 4 91 C4.433125 91.55429688 4.86625 92.10859375 5.3125 92.6796875 C5.869375 93.40414062 6.42625 94.12859375 7 94.875 C7.556875 95.59429687 8.11375 96.31359375 8.6875 97.0546875 C10 99 10 99 10 101 C10.66 101 11.32 101 12 101 C12.66 102.98 13.32 104.96 14 107 C14.66 107 15.32 107 16 107 C16.66 108.65 17.32 110.3 18 112 C18.66 112 19.32 112 20 112 C20.33 113.32 20.66 114.64 21 116 C21.66 116 22.32 116 23 116 C23.66 117.98 24.32 119.96 25 122 C25.66 122 26.32 122 27 122 C27.97733555 123.41545148 28.94778256 124.83637901 29.875 126.28515625 C33.51390734 131.83196293 37.62255078 135.30959367 43 139 C43 139.33 43 139.66 43 140 C35.43877982 139.6712513 29.38493817 136.23692756 23.9453125 131.03515625 C19.35315305 125.90100373 15.31050746 120.5464378 13 114 C12.34 114 11.68 114 11 114 C10.02212454 112.61748642 9.05442612 111.22608829 8.15234375 109.79296875 C6.92528803 107.88375325 5.59986422 106.07403748 4.25 104.25 C2 101 2 101 2 99 C1.34 99 0.68 99 0 99 C-1.98 95.535 -1.98 95.535 -4 92 C-2.96552734 91.41605469 -2.96552734 91.41605469 -1.91015625 90.8203125 C10.63971164 83.34892338 17.27718194 74.48681143 22.109375 60.875 C23.28378609 55.76528157 23.3294547 50.91293891 23.3125 45.6875 C23.32861328 44.70587891 23.34472656 43.72425781 23.36132812 42.71289062 C23.36996716 29.6593012 18.89347439 19.0711898 10.33203125 9.3125 C9.01330352 7.87781309 9.01330352 7.87781309 7 7 C7 6.34 7 5.68 7 5 C6.21625 4.731875 5.4325 4.46375 4.625 4.1875 C2 3 2 3 0 0 Z " fill="#A5BFCC" transform="translate(697,79)"/>
<path d="M0 0 C2.97 0 5.94 0 9 0 C9.01213028 1.84923317 9.01213028 1.84923317 9.02450562 3.73582458 C9.10210623 15.37358259 9.18988052 27.0112257 9.28752708 38.64883327 C9.33739938 44.63134393 9.3837302 50.61383771 9.421875 56.59643555 C9.45884232 62.37368124 9.50523326 68.15078249 9.55806351 73.92790413 C9.5765467 76.12818929 9.59167689 78.32850534 9.60334396 80.5288372 C9.62031057 83.61890215 9.64937051 86.70864066 9.68115234 89.79858398 C9.68331253 90.70130035 9.68547272 91.60401672 9.68769836 92.53408813 C9.79429722 100.68680922 10.97032256 107.81666195 15 115 C15.33 115.66 15.66 116.32 16 117 C8.88999447 116.6384743 8.88999447 116.6384743 5.125 113.9375 C2.52540722 110.34394527 1.71731445 107.3116836 1 103 C0.82992935 102.16314667 0.6598587 101.32629333 0.4846344 100.46408081 C-0.12743822 96.08909418 -0.13143803 91.82610297 -0.11352539 87.41455078 C-0.11367142 86.46757828 -0.11381744 85.52060577 -0.1139679 84.54493713 C-0.11327364 81.42837194 -0.10550406 78.3118672 -0.09765625 75.1953125 C-0.09579034 73.02912427 -0.09436725 70.86293563 -0.09336853 68.69674683 C-0.08955698 63.00531848 -0.07973832 57.31391579 -0.06866455 51.62249756 C-0.05842114 45.81083524 -0.05386463 39.99916875 -0.04882812 34.1875 C-0.03811482 22.79165541 -0.02105476 11.39582984 0 0 Z " fill="#A5BFCC" transform="translate(817,102)"/>
<path d="M0 0 C1.43798828 1.71484375 1.43798828 1.71484375 2.5703125 3.9375 C3.20259766 5.15759766 3.20259766 5.15759766 3.84765625 6.40234375 C4.26917969 7.25957031 4.69070312 8.11679688 5.125 9 C5.55425781 9.82628906 5.98351562 10.65257812 6.42578125 11.50390625 C10.79116891 20.08692999 13.46058643 27.32768504 13 37 C10.525 37.495 10.525 37.495 8 38 C5.89172945 34.83759418 5.66182535 33.49342531 5.375 29.8125 C5.30023438 28.91144531 5.22546875 28.01039063 5.1484375 27.08203125 C5.09945312 26.39496094 5.05046875 25.70789063 5 25 C2.08347826 24.83318891 2.08347826 24.83318891 -1 25 C-3.83270074 27.83270074 -4.73376383 31.30152268 -6.0625 35 C-8.92096774 42.84193548 -8.92096774 42.84193548 -10 45 C-10.08308638 46.37548156 -10.10736016 47.75485796 -10.09765625 49.1328125 C-10.09443359 49.93847656 -10.09121094 50.74414062 -10.08789062 51.57421875 C-10.07951172 52.41597656 -10.07113281 53.25773437 -10.0625 54.125 C-10.05798828 54.97449219 -10.05347656 55.82398438 -10.04882812 56.69921875 C-10.03702874 58.79950909 -10.01909306 60.8997633 -10 63 C-11.98 63.99 -11.98 63.99 -14 65 C-17.72583676 58.54188296 -17.19276254 51.16588934 -17.1875 43.9375 C-17.18741943 42.90544434 -17.18733887 41.87338867 -17.18725586 40.81005859 C-17.13987335 34.47077719 -16.69247538 28.4535933 -15.51171875 22.21484375 C-14.4492106 15.53969712 -14.30698185 8.74552225 -14 2 C-13.34 2 -12.68 2 -12 2 C-11.32694982 3.60149886 -10.66177773 5.20631029 -10 6.8125 C-9.62875 7.70582031 -9.2575 8.59914062 -8.875 9.51953125 C-8 12 -8 12 -8 15 C-7.01 15 -6.02 15 -5 15 C-5.52537724 9.9697924 -6.10594786 4.98114761 -7 0 C-4.25038198 -1.37480901 -2.8917921 -0.92216594 0 0 Z " fill="#F3F4F5" transform="translate(159,176)"/>
<path d="M0 0 C0 0.66 0 1.32 0 2 C-1.03125 2.70125 -2.0625 3.4025 -3.125 4.125 C-12.95335409 10.98106959 -16.8974156 22.40396151 -19.60302734 33.70117188 C-22.61691641 51.15429576 -20.45058385 69.79124179 -10.7578125 84.8125 C-8.11157138 88.10560006 -5.04082551 90.76250355 -1.7578125 93.40625 C-1.17773438 93.9321875 -0.59765625 94.458125 0 95 C0 95.66 0 96.32 0 97 C-10.75877232 94.16087953 -18.10075633 88.47181362 -24 79 C-31.95218085 63.16995775 -31.83935151 41.98758715 -27.22265625 25.16796875 C-23.55483765 15.17198242 -17.6646687 6.89567872 -8.109375 2.0390625 C-5.25833476 0.73333398 -3.16026871 0 0 0 Z " fill="#A5BFCC" transform="translate(503,99)"/>
<path d="M0 0 C10.27001285 2.05400257 19.02336176 8.50860141 25 17 C30.70071994 26.03510331 31.32862517 35.54285189 31.25 46 C31.25773437 47.02867188 31.26546875 48.05734375 31.2734375 49.1171875 C31.24855456 58.89618117 29.67791414 66.42382409 25 75 C24.34 75 23.68 75 23 75 C22.773125 75.556875 22.54625 76.11375 22.3125 76.6875 C18.84710185 82.79320151 11.7028944 88.67596757 4.86328125 90.6015625 C2.9375 90.875 2.9375 90.875 0 91 C0 90.34 0 89.68 0 89 C2.96187272 86.82796 5.50685991 85.16438003 9 84 C9 83.34 9 82.68 9 82 C9.66 82 10.32 82 11 82 C11.66 80.35 12.32 78.7 13 77 C13.66 77 14.32 77 15 77 C15.268125 76.175 15.53625 75.35 15.8125 74.5 C16.87378841 71.37199204 18.01723048 68.29828503 19.21875 65.22265625 C24.06576382 51.43290194 23.76855158 35.51055502 18 22 C14.7392466 15.74893483 11.49585434 11.39291273 6 7 C6 6.34 6 5.68 6 5 C5.195625 4.731875 4.39125 4.46375 3.5625 4.1875 C2.716875 3.795625 1.87125 3.40375 1 3 C0.67 2.01 0.34 1.02 0 0 Z " fill="#A5BFCC" transform="translate(398,79)"/>
<path d="M0 0 C9.06571421 13.59857131 8.29690415 32.72182888 8.4375 48.4375 C8.44953461 49.11684601 8.46156921 49.79619202 8.47396851 50.49612427 C8.50373153 52.45423513 8.5004321 54.41276151 8.49609375 56.37109375 C8.49794678 57.50474365 8.4997998 58.63839355 8.50170898 59.80639648 C7.88205885 63.75074848 6.52243892 65.93377802 4 69 C0.75 69.875 0.75 69.875 -2 70 C-5.78824597 64.31763104 -4.18579882 57.15269168 -3.33081055 50.61938477 C-1.74585196 38.46899702 -1.5755143 26.3013544 -1.34204102 14.06469727 C-1.31758408 12.89645164 -1.31758408 12.89645164 -1.29263306 11.7046051 C-1.26219079 10.22164758 -1.23603544 8.73859428 -1.21469116 7.25547791 C-1.11174893 2.22349785 -1.11174893 2.22349785 0 0 Z " fill="#152335" transform="translate(193,57)"/>
<path d="M0 0 C0 0.99 0 1.98 0 3 C0.99 2.34 1.98 1.68 3 1 C5.6875 0.875 5.6875 0.875 8 1 C9.125 5.75 9.125 5.75 8 8 C7.34 8 6.68 8 6 8 C5.773125 8.515625 5.54625 9.03125 5.3125 9.5625 C4.14087065 11.73838307 2.89000598 13.43939746 1.375 15.375 C-0.36932188 17.80978262 -1.00996415 19.04882432 -1.625 22.0625 C-0.78759624 25.99829766 1.421155 27.96985712 4 31 C4.375 33.8125 4.375 33.8125 4 36 C3.505 36.495 3.505 36.495 3 37 C2.32987578 39.7859186 2.32987578 39.7859186 3 43 C4.70066693 44.76869361 6.47895433 46.1723421 8.46875 47.60546875 C8.9740625 48.06566406 9.479375 48.52585938 10 49 C10 49.99 10 50.98 10 52 C5.80031984 51.50931572 4.01083152 50.54779834 1.375 47.25 C-2.2042687 42.43383498 -3.28138783 37.78227774 -4.19921875 31.91796875 C-5.13301077 28.51532173 -6.46911336 27.37239667 -9 25 C-11.3560614 19.28766245 -11.89107735 12.07842046 -11 6 C-7.90119113 0.93861218 -5.77297886 -0.1519205 0 0 Z " fill="#162335" transform="translate(150,58)"/>
<path d="M0 0 C4.096883 2.61048554 7.13399103 5.58630032 8.265625 10.4140625 C8.51065787 14.43392612 8.23613892 16.43975658 5.72265625 19.66015625 C1.62438181 21.62391275 -0.75223021 21.60855617 -5.27734375 21.09765625 C-7.33984375 19.91015625 -7.33984375 19.91015625 -8.27734375 18.09765625 C-8.03281251 14.75572933 -7.67190818 13.49222068 -5.27734375 11.09765625 C-2.65234375 10.97265625 -2.65234375 10.97265625 -0.27734375 11.09765625 C0.21765625 12.58265625 0.21765625 12.58265625 0.72265625 14.09765625 C0.06265625 14.09765625 -0.59734375 14.09765625 -1.27734375 14.09765625 C-1.27734375 15.08765625 -1.27734375 16.07765625 -1.27734375 17.09765625 C-0.28734375 16.76765625 0.70265625 16.43765625 1.72265625 16.09765625 C2.74062718 12.44992708 3.10399676 10.78089134 1.22265625 7.41015625 C-3.56968772 2.97723808 -8.59564148 1.51908768 -14.99609375 1.73828125 C-18.818358 2.34041877 -22.13859262 3.8470889 -25.27734375 6.09765625 C-27.56748028 9.53286105 -27.45577348 11.08298725 -27.27734375 15.09765625 C-25.95734375 15.75765625 -24.63734375 16.41765625 -23.27734375 17.09765625 C-23.93734375 16.10765625 -24.59734375 15.11765625 -25.27734375 14.09765625 C-25.27734375 13.10765625 -25.27734375 12.11765625 -25.27734375 11.09765625 C-22.96734375 11.42765625 -20.65734375 11.75765625 -18.27734375 12.09765625 C-17.58984375 14.91015625 -17.58984375 14.91015625 -17.27734375 18.09765625 C-18.82848917 20.24810786 -19.79682061 20.99146329 -22.3984375 21.56640625 C-28.5911599 21.64995057 -28.5911599 21.64995057 -31.83984375 19.03515625 C-33.65105047 15.33399469 -33.85016061 13.1789764 -33.27734375 9.09765625 C-30.56565307 4.06165927 -27.86463672 1.09930824 -22.54296875 -0.9609375 C-15.46979724 -2.99997378 -6.8030205 -3.10541275 0 0 Z " fill="#1D2A3C" transform="translate(142.27734375,114.90234375)"/>
<path d="M0 0 C2.64 0 5.28 0 8 0 C8 15.18 8 30.36 8 46 C5.36 46 2.72 46 0 46 C0 30.82 0 15.64 0 0 Z " fill="#A5BFCC" transform="translate(640,102)"/>
<path d="M0 0 C2.64 0 5.28 0 8 0 C8 15.18 8 30.36 8 46 C5.36 46 2.72 46 0 46 C0 30.82 0 15.64 0 0 Z " fill="#A5BFCC" transform="translate(342,102)"/>
<path d="M0 0 C2.64 0 5.28 0 8 0 C8.01981934 0.60360352 8.03963867 1.20720703 8.06005859 1.82910156 C7.90081791 21.19119641 7.90081791 21.19119641 14 39 C14 39.66 14 40.32 14 41 C9.62940827 40.49179166 6.41152051 39.85830097 3 37 C-0.8222164 29.54759242 -0.3445894 22.22503993 -0.1875 14 C-0.17242476 12.63933774 -0.15874138 11.27865931 -0.14648438 9.91796875 C-0.11130983 6.61156157 -0.06208288 3.30599316 0 0 Z " fill="#A5BFCC" transform="translate(640,178)"/>
<path d="M0 0 C2.64 0 5.28 0 8 0 C8.01458252 0.75506836 8.02916504 1.51013672 8.04418945 2.28808594 C8.11958192 5.77585343 8.2159358 9.26275692 8.3125 12.75 C8.33505859 13.93722656 8.35761719 15.12445313 8.38085938 16.34765625 C8.61873463 24.26241473 9.74109511 31.40924197 12 39 C12.66 39 13.32 39 14 39 C14 39.66 14 40.32 14 41 C11.69 40.67 9.38 40.34 7 40 C7 39.34 7 38.68 7 38 C6.401875 37.979375 5.80375 37.95875 5.1875 37.9375 C2.24166205 36.67499802 1.76413032 34.84706601 0.6109314 31.974823 C-0.34772989 28.87597037 -0.33454443 25.98295085 -0.29296875 22.75390625 C-0.28872391 22.09792953 -0.28447906 21.44195282 -0.28010559 20.76609802 C-0.26348779 18.69779089 -0.22587238 16.63050599 -0.1875 14.5625 C-0.17243111 13.14910275 -0.15874659 11.73569002 -0.14648438 10.32226562 C-0.11364104 6.88118565 -0.06198015 3.44069281 0 0 Z " fill="#A5BFCC" transform="translate(342,178)"/>
<path d="M0 0 C6.93013357 0.56572519 11.54393887 2.48096294 16.4375 7.5 C18.7605957 12.70373437 18.85470043 17.39374466 18 23 C16.97183786 25.47229828 15.75867944 27.57720211 14.30859375 29.82421875 C12.50927468 32.81592239 11.57240044 35.92033342 10.578125 39.25 C10 41 10 41 9 42 C8.76807135 43.51469448 8.58784762 45.03754562 8.4375 46.5625 C8.35371094 47.38878906 8.26992187 48.21507812 8.18359375 49.06640625 C8.12300781 49.70449219 8.06242188 50.34257813 8 51 C6.68 51 5.36 51 4 51 C1.35066656 46.47405537 0.33220404 43.24696826 1 38 C2.875 35.0625 2.875 35.0625 5 33 C5.66 33 6.32 33 7 33 C6.896875 31.783125 6.79375 30.56625 6.6875 29.3125 C6.66802926 25.64551128 6.87983103 25.14546771 9.375 22.125 C10.24125 21.42375 11.1075 20.7225 12 20 C14.26298437 18.13036002 14.26298437 18.13036002 14.4375 15.1875 C13.83732797 10.81481806 12.47061039 9.69149377 9 7 C6.06305739 5.49223849 3.07476625 4.19909185 0 3 C0 2.01 0 1.02 0 0 Z " fill="#162436" transform="translate(162,61)"/>
<path d="M0 0 C2.97 0 5.94 0 9 0 C9 10.23 9 20.46 9 31 C6.03 31 3.06 31 0 31 C0 20.77 0 10.54 0 0 Z " fill="#A5BFCC" transform="translate(914,162)"/>
<path d="M0 0 C2.97 0 5.94 0 9 0 C9 10.23 9 20.46 9 31 C6.03 31 3.06 31 0 31 C0 20.77 0 10.54 0 0 Z " fill="#A5BFCC" transform="translate(914,102)"/>
<path d="M0 0 C4.02334974 0.99233626 6.57173845 3.59625772 9.328125 6.57421875 C8.77313576 10.16992368 7.61954311 11.61257184 4.765625 13.82421875 C0.36014709 16.95629999 -2.35377238 17.2832991 -7.671875 16.57421875 C-9.02538094 15.9495237 -10.36495756 15.2912885 -11.671875 14.57421875 C-11.47986615 10.16761572 -11.12956546 6.5086701 -9.171875 2.51171875 C-5.99700797 0.0511968 -3.95383247 -0.18983633 0 0 Z " fill="#212E3F" transform="translate(164.671875,67.42578125)"/>
<path d="M0 0 C0.66 0 1.32 0 2 0 C2 11.55 2 23.1 2 35 C-6 30 -6 30 -6.90820312 27.0456543 C-6.86630859 25.98258057 -6.82441406 24.91950684 -6.78125 23.82421875 C-6.75546875 22.66728516 -6.7296875 21.51035156 -6.703125 20.31835938 C-6.63609375 19.12017578 -6.5690625 17.92199219 -6.5 16.6875 C-6.46390625 15.46998047 -6.4278125 14.25246094 -6.390625 12.99804688 C-6.29642737 9.99549748 -6.16502633 6.99935361 -6 4 C-4.02 3.34 -2.04 2.68 0 2 C0 1.34 0 0.68 0 0 Z " fill="#A5BFCC" transform="translate(975,130)"/>
<path d="M0 0 C2.97 0 5.94 0 9 0 C9 9.24 9 18.48 9 28 C4 26 4 26 0 24 C0 16.08 0 8.16 0 0 Z " fill="#A5BFCC" transform="translate(978,76)"/>
<path d="M0 0 C1.74382599 3.02678988 2.24776114 5.22363111 2.2734375 8.703125 C2.2940625 9.60160156 2.3146875 10.50007812 2.3359375 11.42578125 C2.36176181 13.29287915 2.38012009 15.16009682 2.390625 17.02734375 C2.61842552 25.89890858 5.20495943 31.59181751 11.375 38 C19.1296026 46.31486946 26.2009335 54.41214724 27.1875 66.0625 C27.32577918 67.42849148 27.4650863 68.79437932 27.60546875 70.16015625 C27.73566406 71.42730469 27.86585938 72.69445312 28 74 C28.31553824 76.0028846 28.64195284 78.00427624 29 80 C28.01 80.495 28.01 80.495 27 81 C24.43161943 76.21347258 23.71925621 72.10373854 23.1875 66.6875 C21.9224858 55.42501516 16.29356772 48.87528351 8.5625 40.93359375 C7.716875 39.96550781 6.87125 38.99742187 6 38 C5.19054932 37.10220825 5.19054932 37.10220825 4.36474609 36.1862793 C-1.14560499 29.24017833 -0.70424721 22.50214848 -0.375 13.9375 C-0.34484011 12.58143992 -0.31747497 11.22531466 -0.29296875 9.86914062 C-0.22268966 6.57773672 -0.12433328 3.28973103 0 0 Z " fill="#F1F3F5" transform="translate(179,169)"/>
<path d="M0 0 C0 9.24 0 18.48 0 28 C-2.64 28 -5.28 28 -8 28 C-8.17426756 24.08389516 -8.28084155 20.16878503 -8.375 16.25 C-8.42527344 15.13882813 -8.47554687 14.02765625 -8.52734375 12.8828125 C-8.67228302 4.86283943 -8.67228302 4.86283943 -6.70800781 2.34179688 C-4.53404216 0.84314821 -2.66064375 0 0 0 Z " fill="#A5BFCC" transform="translate(993,191)"/>
<path d="M0 0 C1.72880982 -0.05449838 3.45812712 -0.09301688 5.1875 -0.125 C6.15042969 -0.14820312 7.11335937 -0.17140625 8.10546875 -0.1953125 C12.83652021 0.12392174 16.11164522 1.56389129 19.3125 5.0625 C22.1718353 8.6033349 22.85830087 11.46329315 22.51171875 15.9765625 C22 18 22 18 20 20.5625 C15.90172556 22.5262565 13.52511354 22.51089992 9 22 C6.9375 20.8125 6.9375 20.8125 6 19 C6.24453124 15.65807308 6.60543557 14.39456443 9 12 C11.625 11.875 11.625 11.875 14 12 C14.33 12.99 14.66 13.98 15 15 C14.34 15 13.68 15 13 15 C13 15.99 13 16.98 13 18 C13.99 17.67 14.98 17.34 16 17 C16.86382428 14.24293584 16.86382428 14.24293584 17 11 C14.17076156 6.41663372 11.25554319 4.93944012 6.25 3.1875 C5.07953125 2.76855469 3.9090625 2.34960938 2.703125 1.91796875 C1.81109375 1.61503906 0.9190625 1.31210938 0 1 C0 0.67 0 0.34 0 0 Z " fill="#192638" transform="translate(128,114)"/>
<path d="M0 0 C6.76479751 3.38239875 6.76479751 3.38239875 8.1796875 7.09765625 C9.07039421 11.3348753 9.22739174 15.13310875 9.125 19.4375 C9.11597656 20.16904297 9.10695313 20.90058594 9.09765625 21.65429688 C9.07436153 23.43634298 9.0385019 25.21821759 9 27 C6.03 26.01 3.06 25.02 0 24 C0 16.08 0 8.16 0 0 Z " fill="#A5BFCC" transform="translate(861,77)"/>
<path d="M0 0 C0.99 0 1.98 0 3 0 C3.29390625 1.12921875 3.29390625 1.12921875 3.59375 2.28125 C7.59216865 16.48253003 14.43625972 29.95963679 23.32421875 41.7578125 C26.15579914 45.55312376 26.37400527 48.32493407 26 53 C24.515 52.505 24.515 52.505 23 52 C22.31942871 50.00468871 21.65654022 48.00334704 21 46 C19.38140402 43.02216116 17.56160177 40.1759704 15.75 37.3125 C14.752278 35.70283102 13.75617524 34.09215722 12.76171875 32.48046875 C12.04508057 31.3210376 12.04508057 31.3210376 11.31396484 30.13818359 C-0.51477881 10.88955169 -0.51477881 10.88955169 0 0 Z " fill="#E5E8EB" transform="translate(24,108)"/>
<path d="M0 0 C4.04574552 3.59621824 7.62307588 7.63106332 9 13 C8.09765625 15.24609375 8.09765625 15.24609375 7 17 C6.4740625 16.0409375 6.4740625 16.0409375 5.9375 15.0625 C3.22815794 12.17836168 0.84141089 12.2899178 -3 12 C-3 11.67 -3 11.34 -3 11 C-4.11375 10.71125 -5.2275 10.4225 -6.375 10.125 C-10 9 -10 9 -12 7 C-11.625 4.875 -11.625 4.875 -11 3 C-9.68 3 -8.36 3 -7 3 C-7 3.99 -7 4.98 -7 6 C-6.01 6 -5.02 6 -4 6 C-3.566875 5.071875 -3.566875 5.071875 -3.125 4.125 C-2 2 -2 2 0 0 Z " fill="#E8E9EB" transform="translate(137,163)"/>
<path d="M0 0 C1.83617529 0.40395856 3.66882796 0.82393522 5.5 1.25 C6.5209375 1.48203125 7.541875 1.7140625 8.59375 1.953125 C15.6987842 4.1367823 21.71617901 7.95350726 27.8125 12.125 C28.46669922 12.56714844 29.12089844 13.00929688 29.79492188 13.46484375 C31.53234611 14.63969037 33.26636676 15.81956646 35 17 C35.99 17.66 36.98 18.32 38 19 C38 19.99 38 20.98 38 22 C33.18508812 20.65211299 29.77127386 18.63412309 25.75 15.6875 C16.13354396 8.8548987 7.61623272 5.23949314 -4 3 C-2.68 2.67 -1.36 2.34 0 2 C0 1.34 0 0.68 0 0 Z " fill="#E9EBED" transform="translate(156,24)"/>
<path d="M0 0 C0.33 0 0.66 0 1 0 C1 2.97 1 5.94 1 9 C1.66 9 2.32 9 3 9 C2.09565929 14.83097291 0.61692086 19.22951536 -2.78125 24.078125 C-5.73616267 28.73779497 -6.27878151 32.79065126 -6.4140625 38.26953125 C-6.43342865 38.95053391 -6.4527948 39.63153656 -6.4727478 40.33317566 C-6.53218132 42.49282593 -6.578782 44.65253057 -6.625 46.8125 C-6.66321328 48.28322544 -6.70226694 49.75392929 -6.7421875 51.22460938 C-6.83785183 54.81620789 -6.92201575 58.40796913 -7 62 C-7.33 62 -7.66 62 -8 62 C-8.33 53.75 -8.66 45.5 -9 37 C-9.33 37 -9.66 37 -10 37 C-10 30.33465661 -8.10751343 25.92444788 -5 20.1875 C-1.37739051 13.46160615 0.23510861 7.75858414 0 0 Z " fill="#E1E7EA" transform="translate(235,94)"/>
<path d="M0 0 C1.28132812 0.00902344 2.56265625 0.01804687 3.8828125 0.02734375 C4.87023437 0.03894531 5.85765625 0.05054687 6.875 0.0625 C6.875 1.0525 6.875 2.0425 6.875 3.0625 C2.03524721 6.77672889 -1.99814639 9.0625 -8.125 9.0625 C-8.455 6.4225 -8.785 3.7825 -9.125 1.0625 C-6.12186252 -0.43906874 -3.33432478 -0.03031204 0 0 Z " fill="#253242" transform="translate(131.125,84.9375)"/>
<path d="M0 0 C0.45375 0.5775 0.9075 1.155 1.375 1.75 C4.00208385 4.00178616 5.79546342 4.77951849 9 5.9375 C13.24679508 7.54727336 15.81209444 8.82308938 18 13 C18.25 16.3125 18.25 16.3125 18 19 C15 17 15 17 13.5625 14.5625 C11.84406013 11.74425861 10.95186118 10.47593059 8 9 C4.94827958 8.59568858 2.03234045 8.43038909 -1 9 C-2.77110565 10.43087002 -2.77110565 10.43087002 -4 12 C-4.99 11.67 -5.98 11.34 -7 11 C-5.71937515 9.2925002 -4.38232443 7.62626404 -3 6 C-2.34 6 -1.68 6 -1 6 C-0.67 4.02 -0.34 2.04 0 0 Z " fill="#D3D5D9" transform="translate(159,60)"/>
<path d="M0 0 C3.625 0.25 3.625 0.25 5.625 1.5 C6.625 3.25 6.625 3.25 6.4375 5.3125 C5.625 7.25 5.625 7.25 3.625 9.25 C0.125 9.5 0.125 9.5 -3.375 9.25 C-4.035 8.59 -4.695 7.93 -5.375 7.25 C-4.67050647 0.34596344 -4.67050647 0.34596344 0 0 Z " fill="#DCDEE1" transform="translate(162.375,71.75)"/>
<path d="M0 0 C1.19496094 -0.00128906 2.38992187 -0.00257812 3.62109375 -0.00390625 C4.87019531 -0.00003906 6.11929688 0.00382812 7.40625 0.0078125 C8.65535156 0.00394531 9.90445313 0.00007813 11.19140625 -0.00390625 C12.98384766 -0.00197266 12.98384766 -0.00197266 14.8125 0 C16.45702148 0.00169189 16.45702148 0.00169189 18.13476562 0.00341797 C20.90625 0.1328125 20.90625 0.1328125 23.90625 1.1328125 C23.90625 1.7928125 23.90625 2.4528125 23.90625 3.1328125 C12.68625 3.1328125 1.46625 3.1328125 -10.09375 3.1328125 C-8.11887686 -0.81693377 -3.90684666 0.00401939 0 0 Z " fill="#FAFAFB" transform="translate(132.09375,22.8671875)"/>
<path d="M0 0 C0.99 0.33 1.98 0.66 3 1 C3 1.99 3 2.98 3 4 C3.99 4 4.98 4 6 4 C6.66 2.68 7.32 1.36 8 0 C8.99 0 9.98 0 11 0 C11 0.66 11 1.32 11 2 C10.34 2 9.68 2 9 2 C9.020625 2.804375 9.04125 3.60875 9.0625 4.4375 C9 7 9 7 8 8 C4.52743085 8.30867281 2.6127712 8.38701339 -0.375 6.5 C-0.91125 6.005 -1.4475 5.51 -2 5 C-1.125 1.125 -1.125 1.125 0 0 Z " fill="#293646" transform="translate(127,165)"/>
<path d="M0 0 C2.19386012 2.52293914 3.52299138 5.07658004 4.8125 8.125 C7.53633889 14.4771185 11.17330674 20.2599601 15 26 C14.01 26 13.02 26 12 26 C5.44595735 18.71604077 0.83231675 9.77972184 0 0 Z " fill="#D2D5D8" transform="translate(35,114)"/>
<path d="M0 0 C1.89692143 0.45380895 3.79249595 0.91324992 5.6875 1.375 C6.74324219 1.63023438 7.79898438 1.88546875 8.88671875 2.1484375 C11.70406766 2.91905489 14.31668325 3.85498543 17 5 C16.67 5.99 16.34 6.98 16 8 C15.31035156 7.80664062 14.62070313 7.61328125 13.91015625 7.4140625 C7.96828666 5.76761853 2.03029017 4.28514381 -4 3 C-2.68 2.67 -1.36 2.34 0 2 C0 1.34 0 0.68 0 0 Z " fill="#E6E8EA" transform="translate(156,24)"/>
<path d="M0 0 C0.33 0 0.66 0 1 0 C1 6.6 1 13.2 1 20 C-2.26679297 15.64427604 -2.38925992 14.62765154 -2.3125 9.4375 C-2.30863281 8.30183594 -2.30476563 7.16617188 -2.30078125 5.99609375 C-2 3 -2 3 0 0 Z " fill="#FBFCFC" transform="translate(25,90)"/>
<path d="M0 0 C2.50290327 1.14862695 4.66962723 2.50856143 7 4 C6.01 5.485 6.01 5.485 5 7 C4.43796875 6.68289062 3.8759375 6.36578125 3.296875 6.0390625 C0.84803683 4.93125475 -1.08387855 4.61024601 -3.75 4.375 C-4.94882813 4.26285156 -4.94882813 4.26285156 -6.171875 4.1484375 C-6.77515625 4.09945312 -7.3784375 4.05046875 -8 4 C-8 3.01 -8 2.02 -8 1 C-5.12063188 -0.43968406 -3.20992381 -0.302823 0 0 Z " fill="#E4E6E8" transform="translate(93,65)"/>
<path d="M0 0 C-0.99 0.33 -1.98 0.66 -3 1 C-2.34 1.66 -1.68 2.32 -1 3 C-6.28 3.66 -11.56 4.32 -17 5 C-17 4.34 -17 3.68 -17 3 C-17.66 2.67 -18.32 2.34 -19 2 C-16.58525383 1.46839543 -14.16891893 0.94945234 -11.75 0.4375 C-11.06808594 0.28603516 -10.38617188 0.13457031 -9.68359375 -0.02148438 C-6.18230962 -0.75233495 -3.39701827 -1.32203546 0 0 Z " fill="#E3E7EA" transform="translate(126,24)"/>
<path d="M0 0 C0.33 0 0.66 0 1 0 C1.185625 0.94875 1.37125 1.8975 1.5625 2.875 C2.73400805 6.38371699 2.73400805 6.38371699 6.625 7.375 C7.73875 7.58125 8.8525 7.7875 10 8 C9.67 8.66 9.34 9.32 9 10 C0.42857143 10.28571429 0.42857143 10.28571429 -3 8 C-1.125 1.125 -1.125 1.125 0 0 Z " fill="#142234" transform="translate(156,74)"/>
<path d="M0 0 C1.093125 0.226875 2.18625 0.45375 3.3125 0.6875 C2.10868552 3.18111571 0.85821278 5.36893083 -0.6875 7.6875 C-1.6775 7.6875 -2.6675 7.6875 -3.6875 7.6875 C-4.0175 6.6975 -4.3475 5.7075 -4.6875 4.6875 C-5.3475 4.0275 -6.0075 3.3675 -6.6875 2.6875 C-4.58035839 -0.41123767 -3.86755884 -0.32775922 0 0 Z " fill="#F4F5F6" transform="translate(133.6875,161.3125)"/>
<path d="M0 0 C0.94875 0.04125 1.8975 0.0825 2.875 0.125 C2.875 0.455 2.875 0.785 2.875 1.125 C1.225 1.455 -0.425 1.785 -2.125 2.125 C-2.125 3.115 -2.125 4.105 -2.125 5.125 C-0.475 5.455 1.175 5.785 2.875 6.125 C3.865 4.805 4.855 3.485 5.875 2.125 C6.0625 4.5 6.0625 4.5 5.875 7.125 C2.875 9.125 2.875 9.125 -0.75 8.8125 C-4.125 8.125 -4.125 8.125 -5.125 7.125 C-5.3125 4.6875 -5.3125 4.6875 -5.125 2.125 C-3.125 0.125 -3.125 0.125 0 0 Z " fill="#DDDFE2" transform="translate(94.125,73.875)"/>
<path d="M0 0 C4.08449505 0.23564395 6.34214932 0.40962119 9.4375 3.1875 C11.22875985 6.41176773 11.33785628 8.36804503 11 12 C8 10 8 10 6.625 7.6875 C4.78164163 4.63886885 2.5794069 2.4399795 0 0 Z " fill="#E0E1E4" transform="translate(166,67)"/>
<path d="M0 0 C0.99 0.66 1.98 1.32 3 2 C1.515 4.475 1.515 4.475 0 7 C-1.65 6.67 -3.3 6.34 -5 6 C-5.33 4.68 -5.66 3.36 -6 2 C-3.1875 0.875 -3.1875 0.875 0 0 Z " fill="#2A3647" transform="translate(97,74)"/>
<path d="M0 0 C0.33 0 0.66 0 1 0 C1.33 1.65 1.66 3.3 2 5 C2.33 5 2.66 5 3 5 C3.33 9.62 3.66 14.24 4 19 C1 17 1 17 0.31640625 14.76953125 C-0.03251365 11.71540519 -0.09627585 8.76110268 -0.0625 5.6875 C-0.05347656 4.61886719 -0.04445312 3.55023438 -0.03515625 2.44921875 C-0.02355469 1.64097656 -0.01195312 0.83273438 0 0 Z " fill="#E7EAED" transform="translate(58,234)"/>
<path d="M0 0 C1.18851563 0.00902344 2.37703125 0.01804687 3.6015625 0.02734375 C4.51679688 0.03894531 5.43203125 0.05054687 6.375 0.0625 C3.09827085 2.96542752 0.42217391 3.64279064 -3.875 4.25 C-4.95265625 4.40855469 -6.0303125 4.56710938 -7.140625 4.73046875 C-7.96046875 4.84003906 -8.7803125 4.94960937 -9.625 5.0625 C-9.25 3.125 -9.25 3.125 -8.625 1.0625 C-5.74084117 -0.37957941 -3.20778472 -0.03144887 0 0 Z " fill="#384453" transform="translate(129.625,112.9375)"/>
<path d="M0 0 C4.94028892 0.14115111 8.2627712 3.0812997 12 6 C11.67 6.99 11.34 7.98 11 9 C10.39671875 8.66226563 9.7934375 8.32453125 9.171875 7.9765625 C8.37265625 7.53054687 7.5734375 7.08453125 6.75 6.625 C5.96109375 6.18414062 5.1721875 5.74328125 4.359375 5.2890625 C2.26085803 4.14252177 0.1463923 3.05350448 -2 2 C-1.34 1.34 -0.68 0.68 0 0 Z " fill="#E0E2E4" transform="translate(81,80)"/>
<path d="M0 0 C5.28 0.66 10.56 1.32 16 2 C16 2.66 16 3.32 16 4 C13.89611431 4.05402274 11.79183286 4.09280256 9.6875 4.125 C7.92986328 4.15980469 7.92986328 4.15980469 6.13671875 4.1953125 C3 4 3 4 0 2 C0 1.34 0 0.68 0 0 Z " fill="#F7F9FA" transform="translate(193,171)"/>
<path d="M0 0 C2.7885289 -0.22107787 5.34653181 -0.28107535 8.125 -0.1875 C8.87910156 -0.17396484 9.63320312 -0.16042969 10.41015625 -0.14648438 C12.27374127 -0.11109985 14.13695978 -0.05729167 16 0 C16 0.66 16 1.32 16 2 C10.06 2.33 4.12 2.66 -2 3 C-1.34 2.01 -0.68 1.02 0 0 Z " fill="#FDFDFD" transform="translate(67,36)"/>
<path d="M0 0 C0.33 0 0.66 0 1 0 C1 2.97 1 5.94 1 9 C1.66 9 2.32 9 3 9 C2.34 11.97 1.68 14.94 1 18 C0.01 17.34 -0.98 16.68 -2 16 C-1.34 10.72 -0.68 5.44 0 0 Z " fill="#D2D7DB" transform="translate(235,94)"/>
<path d="M0 0 C0.33 0 0.66 0 1 0 C1 3.96 1 7.92 1 12 C0.01 11.01 -0.98 10.02 -2 9 C-2 8.34 -2 7.68 -2 7 C-2.99 6.67 -3.98 6.34 -5 6 C-3.35830472 3.97945196 -1.69088222 1.97956942 0 0 Z " fill="#E5E7E9" transform="translate(84,174)"/>
<path d="M0 0 C0 0.66 0 1.32 0 2 C-8.42857143 5.42857143 -8.42857143 5.42857143 -13 5 C-9.82825122 0.24237683 -5.4964213 0 0 0 Z " fill="#F8F9FA" transform="translate(109,27)"/>
<path d="M0 0 C0.99 0 1.98 0 3 0 C3 4.29 3 8.58 3 13 C-0.375 8.5 -0.375 8.5 -0.1875 4.25 C-0.16042969 3.45078125 -0.13335937 2.6515625 -0.10546875 1.828125 C-0.07066406 1.22484375 -0.03585938 0.6215625 0 0 Z " fill="#BABEC3" transform="translate(180,74)"/>
<path d="M0 0 C3 1 3 1 5 4 C5 4.99 5 5.98 5 7 C3.35 6.67 1.7 6.34 0 6 C-0.38218767 4.34385343 -0.71395102 2.67542976 -1 1 C-0.67 0.67 -0.34 0.34 0 0 Z " fill="#E5E7E9" transform="translate(104,47)"/>
<path d="M0 0 C3.02788635 3.46044155 4.98556464 7.52249221 6 12 C5.578125 14.25 5.578125 14.25 5 16 C2.38592128 10.63809899 0.50771472 5.96564796 0 0 Z " fill="#DBDDE0" transform="translate(35,114)"/>
<path d="M0 0 C0.66 0.33 1.32 0.66 2 1 C0.08864614 4.53600465 -1.62642766 6.78972846 -5 9 C-5 8.34 -5 7.68 -5 7 C-5.66 6.67 -6.32 6.34 -7 6 C-4.69 4.02 -2.38 2.04 0 0 Z " fill="#E5E9EB" transform="translate(65,36)"/>
<path d="M0 0 C0.33 0 0.66 0 1 0 C1.28571429 8.57142857 1.28571429 8.57142857 -1 12 C-1.66 12 -2.32 12 -3 12 C-2.69106068 10.3743193 -2.3777305 8.74947252 -2.0625 7.125 C-1.88847656 6.22007812 -1.71445313 5.31515625 -1.53515625 4.3828125 C-1 2 -1 2 0 0 Z " fill="#F5F7F8" transform="translate(83,181)"/>
<path d="M0 0 C-1.3125 1.5 -1.3125 1.5 -3 3 C-3.99 3 -4.98 3 -6 3 C-6 2.34 -6 1.68 -6 1 C-9.3 1 -12.6 1 -16 1 C-16 0.67 -16 0.34 -16 0 C-13.89651926 -0.19504458 -11.79217415 -0.38078496 -9.6875 -0.5625 C-8.51574219 -0.66691406 -7.34398437 -0.77132812 -6.13671875 -0.87890625 C-3 -1 -3 -1 0 0 Z " fill="#DBDEE1" transform="translate(215,172)"/>
<path d="M0 0 C1.98 0 3.96 0 6 0 C5.67 1.32 5.34 2.64 5 4 C3.02 4 1.04 4 -1 4 C-0.67 2.68 -0.34 1.36 0 0 Z " fill="#283545" transform="translate(160,74)"/>
<path d="M0 0 C0.75 1.6875 0.75 1.6875 1 4 C-0.9375 6.75 -0.9375 6.75 -3 9 C-3.66 8.67 -4.32 8.34 -5 8 C-3.8141763 4.62496331 -2.72426311 2.35277269 0 0 Z " fill="#EEF0F2" transform="translate(234,109)"/>
<path d="M0 0 C4.75 0.75 4.75 0.75 7 3 C7 3.99 7 4.98 7 6 C2.25 4.125 2.25 4.125 0 3 C0 2.01 0 1.02 0 0 Z " fill="#E9EAEC" transform="translate(205,55)"/>
<path d="M0 0 C0.20625 0.61875 0.4125 1.2375 0.625 1.875 C2.54775888 4.84653645 4.66594527 5.13024659 8 6 C7.01 6.33 6.02 6.66 5 7 C5 7.66 5 8.32 5 9 C2.53199953 7.84826645 0.95216435 6.95216435 -1 5 C-0.625 2.375 -0.625 2.375 0 0 Z " fill="#3A4555" transform="translate(88,77)"/>
<path d="M0 0 C1.32 0 2.64 0 4 0 C3.75 1.875 3.75 1.875 3 4 C0.9375 5.25 0.9375 5.25 -1 6 C-1 2 -1 2 0 0 Z " fill="#E3E5E7" transform="translate(118,44)"/>
<path d="M0 0 C0.66 0.33 1.32 0.66 2 1 C1 4 1 4 -2.0625 5.6875 C-3.031875 6.120625 -4.00125 6.55375 -5 7 C-5.33 6.34 -5.66 5.68 -6 5 C-4.06745228 2.9754262 -2.36841312 1.57894208 0 0 Z " fill="#ECEFF1" transform="translate(79,178)"/>
<path d="M0 0 C0.66 0.33 1.32 0.66 2 1 C-0.31 3.64 -2.62 6.28 -5 9 C-5.66 8.67 -6.32 8.34 -7 8 C-5.61918777 3.8575633 -3.40174442 2.67796901 0 0 Z " fill="#F4F5F6" transform="translate(39,66)"/>
<path d="M0 0 C0.33 0 0.66 0 1 0 C0.67 2.64 0.34 5.28 0 8 C-0.99 8 -1.98 8 -3 8 C-2.25 2.25 -2.25 2.25 0 0 Z " fill="#F0F3F5" transform="translate(27,83)"/>
<path d="M0 0 C0.66 0.33 1.32 0.66 2 1 C-0.64 3.97 -3.28 6.94 -6 10 C-6 6.41087588 -5.33563446 5.89142971 -3 3.3125 C-2.443125 2.68988281 -1.88625 2.06726563 -1.3125 1.42578125 C-0.879375 0.95527344 -0.44625 0.48476562 0 0 Z " fill="#D7D9DD" transform="translate(128,161)"/>
<path d="M0 0 C2.97 0.495 2.97 0.495 6 1 C5.67 1.99 5.34 2.98 5 4 C2.03 3.67 -0.94 3.34 -4 3 C-2.68 2.67 -1.36 2.34 0 2 C0 1.34 0 0.68 0 0 Z " fill="#DDE0E2" transform="translate(156,24)"/>
<path d="M0 0 C0.99 0 1.98 0 3 0 C3.66 1.98 4.32 3.96 5 6 C2.525 5.01 2.525 5.01 0 4 C0 2.68 0 1.36 0 0 Z " fill="#D9DDE0" transform="translate(29,123)"/>
<path d="M0 0 C1.37562854 1.28965176 2.70766393 2.62689293 4 4 C4 4.66 4 5.32 4 6 C2.68 5.67 1.36 5.34 0 5 C-0.5625 3.0625 -0.5625 3.0625 -1 1 C-0.67 0.67 -0.34 0.34 0 0 Z " fill="#E6E7E9" transform="translate(115,126)"/>
<path d="M0 0 C0.66 0.33 1.32 0.66 2 1 C0.75 3.4375 0.75 3.4375 -1 6 C-2.32 6.33 -3.64 6.66 -5 7 C-3.35 4.69 -1.7 2.38 0 0 Z " fill="#E6E8EA" transform="translate(45,59)"/>
<path d="M0 0 C2.31 0.33 4.62 0.66 7 1 C6.01 1.495 6.01 1.495 5 2 C5 2.66 5 3.32 5 4 C3.35 3.67 1.7 3.34 0 3 C0 2.01 0 1.02 0 0 Z " fill="#E5E8EB" transform="translate(188,169)"/>
</svg>
